<svg width="30" height="30" viewBox="0 0 30 30" fill="none" xmlns="http://www.w3.org/2000/svg">
<path d="M24.383 19.1237C22.3966 18.5485 20.6737 17.3359 19.5001 15.687C17.3229 12.7272 11.9625 12.6669 9.73414 15.5883C8.47355 17.3245 6.64333 18.6008 4.53853 19.2114C3.03784 19.6718 2.12264 20.6255 2.08853 21.8971C2.04305 23.7717 2.3898 25.5859 3.91324 27.1535C4.40375 27.6968 5.04295 28.0959 5.7577 28.3053C6.47245 28.5147 7.23388 28.5258 7.9549 28.3374C9.15088 28.0708 10.2999 27.6369 11.3656 27.0494C13.8213 25.6517 15.3447 25.6188 17.8175 27.0878C18.5021 27.5086 19.2345 27.8525 20.0003 28.1127C22.2741 28.8472 24.0874 28.3923 25.4631 26.8301C26.4766 25.7083 27.0287 24.2673 27.0149 22.7796C27.2707 21.0201 26.3839 19.7595 24.3773 19.1237" fill="#141414"/>
<path d="M5.51064 15.55C6.01194 14.1846 5.9509 12.6857 5.3401 11.3624C4.54996 9.84414 3.52675 8.38616 3.77118 6.67057C3.66281 6.60949 3.55083 6.55459 3.4358 6.50613C2.97282 6.952 2.57332 7.45518 2.24775 8.00248C1.44588 9.27911 0.909153 10.6939 0.667468 12.1681C0.500122 13.3389 0.56766 14.5298 0.866419 15.6761C1.0146 16.181 1.33973 16.6209 1.78645 16.9207C2.23317 17.2205 2.77385 17.3618 3.31643 17.3204C4.55565 17.3204 5.19799 16.4105 5.51064 15.5281" fill="#141414"/>
<path d="M20.5347 13.374C20.9794 13.4251 21.4297 13.3444 21.8257 13.1427C22.2218 12.941 22.5447 12.6278 22.7516 12.2449C23.0446 11.7117 23.237 11.1327 23.3201 10.5347C23.7578 7.95861 22.2514 5.71134 21.2111 3.40927C20.9911 3.04289 20.6831 2.73276 20.313 2.50488L19.8526 2.55422C20.5176 4.30818 19.3864 5.71134 18.6133 7.20221C17.7834 8.79174 17.8573 11.0883 18.5281 12.0585C18.7265 12.4177 19.0112 12.726 19.3582 12.9577C19.7053 13.1894 20.1047 13.3377 20.5233 13.3904" fill="#141414"/>
<path d="M25.8497 6.42389L25.2812 6.49514C26.151 8.13948 25.0823 9.40015 24.3149 10.7595C23.8337 11.5619 23.5584 12.4635 23.5119 13.3893C23.4655 14.3151 23.6492 15.2382 24.0477 16.0816C24.2236 16.47 24.5105 16.802 24.8749 17.0389C25.2393 17.2757 25.6662 17.4076 26.1055 17.419C26.5491 17.421 26.9852 17.3081 27.3681 17.0922C27.7511 16.8762 28.0669 16.5651 28.2826 16.1913C28.5019 15.7705 28.6589 15.3222 28.7488 14.8594C29.3513 12.212 27.8677 9.88248 26.816 7.49271C26.5907 7.04896 26.2475 6.6707 25.8213 6.39648" fill="#141414"/>
<path d="M8.86439 13.3685C9.36645 13.3487 9.849 13.1755 10.2424 12.8741C10.6357 12.5726 10.9196 12.1584 11.0529 11.6913C11.4102 10.7159 11.5058 9.66915 11.3309 8.64854C11.156 7.62792 10.7162 6.66655 10.0524 5.85385C9.7532 5.50216 9.54088 5.08942 9.43156 4.64689C9.32224 4.20436 9.31878 3.74365 9.42146 3.29965C9.47354 3.04153 9.49642 2.77872 9.48968 2.51584C9.38736 2.51584 9.22251 2.51584 9.12019 2.46103C8.80027 2.63938 8.53539 2.89668 8.35279 3.20646C7.13063 5.27285 6.02215 7.39405 6.079 9.73449C6.09196 10.4307 6.2107 11.1214 6.43143 11.7844C6.58507 12.2775 6.91046 12.7044 7.35267 12.993C7.79489 13.2816 8.32684 13.4142 8.85871 13.3685" fill="#141414"/>
<path d="M14.9696 10.8581C15.5761 10.7252 16.1151 10.3917 16.493 9.91537C16.8019 9.57022 17.0203 9.15853 17.1297 8.715C17.3429 7.74346 17.3386 6.73923 17.117 5.76943C16.8955 4.79963 16.4618 3.88659 15.845 3.09136C15.5341 2.50927 15.354 1.87054 15.3163 1.21681C15.2971 0.863087 15.3316 0.508558 15.4186 0.164436L15.0207 0C14.581 0.289855 14.2266 0.684502 13.9918 1.14556C13.2756 2.7899 12.4116 4.43423 12.0819 6.14435C11.8328 7.40732 12.0628 8.71454 12.7299 9.82767C12.9563 10.1932 13.2897 10.486 13.6882 10.6693C14.0867 10.8527 14.5325 10.9184 14.9696 10.8581Z" fill="#141414"/>
</svg>
