<svg width="414" height="230" viewBox="0 0 414 230" fill="none" xmlns="http://www.w3.org/2000/svg">
<path d="M196.657 190.543C196.766 190.89 196.805 191.255 196.772 191.618C196.738 191.98 196.634 192.332 196.463 192.653C196.293 192.975 196.06 193.259 195.779 193.49C195.498 193.721 195.174 193.894 194.825 193.998C194.482 194.117 194.119 194.168 193.757 194.147C193.394 194.126 193.039 194.034 192.713 193.875C192.386 193.717 192.093 193.496 191.852 193.225C191.611 192.954 191.425 192.638 191.306 192.295L178.594 153.019C178.389 152.32 178.468 151.569 178.814 150.928C179.16 150.287 179.746 149.808 180.442 149.596C180.784 149.475 181.147 149.423 181.509 149.443C181.871 149.464 182.225 149.556 182.551 149.714C182.877 149.873 183.168 150.095 183.408 150.367C183.647 150.639 183.83 150.956 183.946 151.3L196.657 190.543Z" fill="#666666"/>
<path d="M202.667 189.82V189.691C202.663 189.379 202.536 189.08 202.313 188.861C202.091 188.641 201.791 188.518 201.478 188.518H187.449C187.293 188.516 187.138 188.545 186.993 188.602C186.848 188.66 186.715 188.746 186.603 188.855C186.491 188.964 186.402 189.094 186.34 189.237C186.279 189.381 186.246 189.535 186.244 189.691V189.82C186.251 190.119 186.371 190.404 186.58 190.618C186.788 190.833 187.07 190.961 187.369 190.977V193.709C187.07 193.717 186.786 193.84 186.577 194.053C186.367 194.266 186.248 194.551 186.244 194.85V194.994C186.252 195.307 186.383 195.604 186.609 195.82C186.835 196.037 187.136 196.156 187.449 196.151H201.478C201.632 196.154 201.785 196.125 201.928 196.068C202.071 196.011 202.202 195.927 202.312 195.819C202.423 195.712 202.511 195.584 202.572 195.442C202.633 195.301 202.665 195.148 202.667 194.994V194.85C202.659 194.541 202.529 194.249 202.307 194.035C202.084 193.822 201.787 193.704 201.478 193.709V190.977C201.632 190.979 201.785 190.951 201.928 190.894C202.071 190.837 202.202 190.752 202.312 190.645C202.423 190.537 202.511 190.409 202.572 190.268C202.633 190.126 202.665 189.974 202.667 189.82Z" fill="#666666"/>
<path d="M325.86 73.2958C311.061 73.2926 296.594 77.6781 284.287 85.8977C271.98 94.1174 262.388 105.802 256.722 119.474C251.057 133.145 249.573 148.19 252.458 162.705C255.343 177.22 262.468 190.554 272.931 201.02C283.395 211.485 296.727 218.613 311.241 221.501C325.756 224.39 340.801 222.909 354.474 217.246C368.147 211.584 379.833 201.993 388.056 189.689C396.278 177.384 400.667 162.917 400.667 148.118C400.669 138.293 398.735 128.564 394.977 119.486C391.218 110.408 385.709 102.16 378.762 95.2116C371.815 88.2635 363.568 82.7519 354.491 78.9916C345.414 75.2312 335.685 73.2958 325.86 73.2958ZM390.141 148.118C390.141 149.596 390.141 151.075 389.98 152.553L354.706 145.45L363.416 141.449L389.867 142.172C389.964 144.181 390.06 146.093 390.06 148.118H390.141ZM359.431 165.924L352.055 159.962L388.55 161.858C387.815 165.252 386.799 168.58 385.512 171.805L359.431 165.924ZM385.384 172.352C383.93 175.923 382.155 179.354 380.081 182.604L360.347 166.679L385.384 172.352ZM263.766 132.032C264.703 128.374 265.967 124.808 267.542 121.377L301.723 143.024L291.872 143.667L263.766 132.032ZM290.619 143.747L261.789 145.611C261.95 141.214 262.569 136.846 263.637 132.578L290.619 143.747ZM377.397 109.694L345.53 128.689L349.516 119.369L370.214 101.595C372.793 104.103 375.163 106.817 377.301 109.711L377.397 109.694ZM331.919 160.251L335.245 161.006L335.149 167.209L330.456 162.501L331.919 160.251ZM330.071 162.099L329.348 161.376L330.665 159.962L331.356 160.122L330.071 162.099ZM331.083 159.512L331.164 159.399L330.778 159.046L330.472 159.367L327.805 158.772L327.692 159.303L330.055 159.833L328.962 160.99L326.792 158.805C327.162 158.805 327.516 158.724 327.869 158.66L335.278 159.062V160.444L331.083 159.512ZM336.676 153.084H336.451L335.904 153.341V153.1H335.374L337.865 151.396L338.524 152.136L336.676 153.084ZM328.207 137.624L330.408 135.744L331.115 137.271L329.733 138.09C329.235 137.901 328.725 137.746 328.207 137.624ZM323.562 137.624L323.048 137.367L323.578 136.001L325.491 137.383C324.832 137.412 324.177 137.493 323.53 137.624H323.562ZM322.213 138.026C321.821 138.166 321.44 138.332 321.072 138.524L321.345 137.142L322.357 137.656L322.213 138.026ZM320.461 138.862C319.094 139.67 317.921 140.767 317.022 142.076L314.306 133.687L320.863 136.901L320.461 138.862ZM315.64 145.049C315.346 146.045 315.2 147.079 315.206 148.118C315.206 148.375 315.206 148.632 315.206 148.873L313.92 150.127L308.537 146.72L315.608 145.033L315.64 145.049ZM315.302 149.564C315.369 150.024 315.46 150.48 315.576 150.93L315.479 151.091L314.419 150.432L315.302 149.564ZM315.945 152.055C316.23 152.772 316.591 153.456 317.022 154.096L314.676 153.116L315.608 151.83L315.945 152.055ZM317.665 154.964C318.035 155.411 318.443 155.825 318.886 156.201L318.565 158.322L309.919 159.624L314.258 153.582L317.665 154.964ZM319.384 156.571C319.641 156.78 319.915 156.957 320.188 157.149V158.049L319.143 158.21L319.384 156.571ZM320.734 157.471C320.988 157.615 321.251 157.744 321.522 157.856L320.766 157.985L320.734 157.471ZM322.534 158.258C322.987 158.408 323.449 158.531 323.916 158.628L320.847 159.64V158.531L322.534 158.258ZM330.424 138.331L331.405 137.753L332.096 139.36C331.543 138.976 330.957 138.643 330.344 138.363L330.424 138.331ZM333.638 140.629H333.783V140.838C333.71 140.783 333.641 140.724 333.574 140.661L333.638 140.629ZM336.627 147.459C336.606 147.006 336.553 146.555 336.467 146.109L337.351 142.477L338.845 142.783L336.788 147.604L336.627 147.459ZM336.177 144.904C335.85 143.845 335.362 142.842 334.731 141.931L336.788 142.365L336.177 144.904ZM334.57 141.352L334.394 140.645L337.222 140.726L336.965 141.835L334.57 141.352ZM334.249 140.099L333.317 136.628L339.006 133.237L337.399 140.179L334.249 140.099ZM333.687 140.099V140.613C333.489 140.403 333.28 140.204 333.06 140.019L331.903 137.48L332.851 136.917L333.687 140.099ZM335.294 153.244H335.406V153.726L334.924 153.951C335.052 153.735 335.165 153.509 335.261 153.276L335.294 153.244ZM335.776 152.264C336.105 151.487 336.337 150.672 336.467 149.837L337.543 151.059L335.776 152.264ZM336.676 149.243L336.997 148.488L338.974 150.095L337.977 150.77L336.676 149.243ZM337.222 147.957L339.391 142.895L347.201 144.502L339.456 149.805L337.222 147.957ZM339.6 142.381L340.275 140.774L352.087 141.095L347.812 144.004L339.6 142.381ZM339.038 142.268L337.431 141.947L337.72 140.742H339.665L339.038 142.268ZM337.849 140.212L339.616 132.819L344.261 130.055L339.89 140.26L337.849 140.212ZM339.793 132.064L341.063 126.504L348.407 120.188L344.566 129.171L339.793 132.064ZM339.118 132.466L333.028 136.146L332.465 133.976L340.323 127.227L339.118 132.466ZM332.69 136.339L331.662 136.965L330.922 135.358L332.16 134.298L332.69 136.339ZM330.681 134.732L327.146 126.97L328.994 122.149L331.999 133.542L330.681 134.732ZM330.248 135.101L327.58 137.415C327.235 137.355 326.886 137.317 326.535 137.303L323.868 135.358L326.857 127.661L330.248 135.101ZM323.418 135.101L322.036 134.105L324.414 122.342L326.551 127.05L323.418 135.101ZM323.209 135.648L322.646 137.094L321.554 136.564L321.923 134.699L323.209 135.648ZM321.039 136.306L314.129 132.9L312.522 127.854L321.473 134.362L321.039 136.306ZM316.508 142.06L314.804 142.172L308.858 130.923L313.679 133.285L316.508 142.06ZM316.684 142.606C316.386 143.121 316.128 143.658 315.913 144.213L315.077 142.606H316.684ZM315.399 144.502L307.942 146.27L303.491 143.458L314.467 142.751L315.399 144.502ZM313.47 150.609L311.96 152.103L302.495 148.134L307.685 146.897L313.47 150.609ZM313.936 150.882L315.061 151.605L314.081 152.971L312.474 152.312L313.936 150.882ZM313.744 153.437L309.164 159.865L304.118 160.621L312.056 152.81L313.744 153.437ZM309.469 160.251L318.5 158.901L318.308 160.508L306.464 164.445L309.469 160.251ZM319.111 158.821L320.236 158.644V159.865L318.87 160.315L319.111 158.821ZM320.332 160.428L320.814 169.877L317.343 173.621L318.854 160.91L320.332 160.428ZM320.847 170.616L321.12 176L316.138 183.681L317.231 174.521L320.847 170.616ZM320.847 160.251L324.221 159.126L324.077 158.708H324.366L327.275 162.854L321.297 169.282L320.847 160.251ZM325.073 158.821C325.351 158.837 325.63 158.837 325.909 158.821H326.118L328.657 161.376L327.644 162.452L325.073 158.821ZM329.54 158.226C331.43 157.556 333.099 156.377 334.362 154.819L335.454 154.305V158.531L329.54 158.226ZM335.969 154.064L336.611 153.775L337.383 158.596L335.888 158.515L335.969 154.064ZM337.109 153.534L338.958 152.698L344.502 159.03L337.849 158.644L337.109 153.534ZM339.472 152.457L341.079 151.75L350.48 159.351L345.321 159.078L339.472 152.457ZM339.102 152.039L338.379 151.22L339.456 150.48L340.548 151.364L339.102 152.039ZM339.906 150.159L347.941 144.663L352.955 145.659L341.079 151.123L339.906 150.159ZM348.583 144.229L353.035 141.192L362.179 141.449L353.806 145.274L348.583 144.229ZM353.79 140.678L383.745 120.204C385.248 123.31 386.49 126.535 387.457 129.846L363.207 140.967L353.79 140.678ZM352.858 140.678L340.532 140.34L345.112 129.621L377.702 110.193C379.91 113.2 381.852 116.394 383.504 119.738L352.858 140.678ZM349.998 118.179L360.363 93.9137C363.715 96.0509 366.862 98.4932 369.764 101.209L349.998 118.179ZM349.017 119.015L341.384 125.572L350.207 88.6105C353.554 89.9871 356.779 91.6427 359.849 93.5601L349.017 119.015ZM340.645 126.214L332.401 133.301L329.187 121.442L342.911 86.184C345.179 86.8159 347.411 87.5724 349.596 88.4498L340.645 126.214ZM329.042 120.558L326.6 111.318L332.063 84.2073C335.574 84.5448 339.051 85.1683 342.461 86.0715L329.042 120.558ZM328.705 121.41L326.776 126.359L324.543 121.458L326.359 112.491L328.705 121.41ZM324.157 120.622L308.457 86.3286C311.857 85.3787 315.329 84.7069 318.838 84.3198L325.973 111.366L324.157 120.622ZM323.98 121.522L321.505 133.783L312.137 126.986L299.939 89.398C302.545 88.2288 305.23 87.246 307.974 86.4571L323.98 121.522ZM311.381 126.343L303.346 120.526L289.831 94.9261C292.885 92.8588 296.111 91.0577 299.473 89.5426L311.381 126.343ZM311.671 127.243L313.374 132.498L308.376 130.023L303.877 121.683L311.671 127.243ZM314.145 142.156L302.655 142.895L267.703 120.879C269.002 118.1 270.495 115.415 272.17 112.844L307.894 130.521L314.145 142.156ZM302.511 143.474L307.155 146.398L301.739 147.7L292.949 144.181L302.511 143.474ZM311.59 152.377L303.282 160.556L264.392 166.39C263.533 163.515 262.878 160.583 262.432 157.615L301.691 148.279L311.59 152.377ZM302.639 161.183L295.809 167.916L268.603 176.948C266.965 173.721 265.605 170.361 264.537 166.904L302.639 161.183ZM303.539 161.054L308.794 160.267L305.58 164.638L296.886 167.531L303.539 161.054ZM305.982 165.104L318.291 161.006L316.684 174.184L290.972 201.904C288.362 200.209 285.875 198.329 283.532 196.28L305.982 165.104ZM316.604 175.084L315.479 184.597L300.839 207.095C297.578 205.718 294.438 204.068 291.454 202.162L316.604 175.084ZM315.351 185.963L312.362 210.952C308.596 210.142 304.911 208.991 301.354 207.513L315.351 185.963ZM316.009 184.951L321.184 176.916L322.968 212.27C319.576 212.116 316.202 211.696 312.876 211.016L316.009 184.951ZM321.377 170.134L327.628 163.401L328.528 164.686L321.634 175.292L321.377 170.134ZM327.998 162.999L329.058 161.842L329.862 162.645L328.849 164.252L327.998 162.999ZM330.248 162.999L335.213 168.013V173.107L329.251 164.638L330.248 162.999ZM335.647 174.778L341.143 182.588L345.369 209.361C342.002 210.43 338.551 211.215 335.053 211.707L335.647 174.778ZM341.85 183.585L356.602 204.572C353.176 206.434 349.589 207.983 345.884 209.2L341.85 183.585ZM341.673 182.395L340.195 173.011L365.634 198.61C362.935 200.737 360.071 202.645 357.069 204.315L341.673 182.395ZM340.966 181.399L335.663 173.862V168.543L339.456 172.368L340.966 181.399ZM335.76 167.788L335.856 161.167L337.849 161.633L339.456 171.452L335.76 167.788ZM335.872 160.637V159.126L337.479 159.206L337.768 161.054L335.872 160.637ZM338.025 159.238L345 159.624L348.358 163.465L338.331 161.183L338.025 159.238ZM345.755 159.672L351.139 159.962L358.242 165.715L349.258 163.674L345.755 159.672ZM351.331 159.431L341.577 151.525L353.887 145.868L389.948 153.148C389.732 155.94 389.335 158.715 388.759 161.456L351.331 159.431ZM364.509 140.999L387.634 130.377C388.699 134.052 389.425 137.818 389.803 141.626L364.509 140.999ZM331.421 84.1591L326.182 110.144L319.336 84.2395C321.473 84.0306 323.627 83.9181 325.764 83.9181C327.741 83.9181 329.605 83.9984 331.421 84.1591ZM289.253 95.4082L302.221 119.947L279.723 103.556C282.647 100.515 285.854 97.7602 289.301 95.3278L289.253 95.4082ZM279.273 103.974L302.8 121.056L307.396 129.766L272.427 112.507C274.472 109.442 276.779 106.56 279.322 103.893L279.273 103.974ZM261.596 146.27L291.696 144.181L300.759 147.925L262.319 157.149C261.899 154.157 261.689 151.139 261.693 148.118C261.66 147.395 261.66 146.816 261.693 146.19L261.596 146.27ZM268.747 177.51L294.861 168.848L275.497 187.94C272.909 184.694 270.649 181.2 268.747 177.51ZM275.818 188.357L296.067 168.463L305.066 165.474L283.114 196.007C280.485 193.662 278.056 191.104 275.85 188.357H275.818ZM323.386 212.254L321.57 176.128L328.753 165.072L335.004 173.975L334.41 211.739C331.565 212.114 328.698 212.302 325.828 212.302C324.993 212.302 324.237 212.286 323.386 212.254ZM365.955 198.224L339.922 172.046L338.315 161.697L348.873 164.092L372.978 191.684C370.805 194.027 368.469 196.212 365.987 198.224H365.955ZM373.331 191.298L349.757 164.301L359.093 166.438L379.631 183.086C377.762 185.985 375.666 188.731 373.364 191.298H373.331Z" fill="#666666"/>
<path d="M75.4889 73.2958C60.6904 73.2958 46.2243 77.684 33.9199 85.9056C21.6154 94.1272 12.0253 105.813 6.36217 119.485C0.699051 133.157 -0.782686 148.201 2.10435 162.715C4.99138 177.229 12.1175 190.561 22.5816 201.025C33.0456 211.489 46.3777 218.615 60.8918 221.503C75.4059 224.39 90.4501 222.908 104.122 217.245C117.794 211.582 129.48 201.991 137.701 189.687C145.923 177.382 150.311 162.916 150.311 148.118C150.311 128.274 142.428 109.243 128.396 95.2107C114.364 81.1788 95.3329 73.2958 75.4889 73.2958ZM139.769 148.118C139.769 149.596 139.769 151.075 139.608 152.553L104.254 145.45L112.948 141.449L139.4 142.172C139.592 144.181 139.705 146.093 139.705 148.118H139.769ZM109.059 165.924L101.619 159.962L138.194 161.858C137.46 165.252 136.444 168.58 135.157 171.805L109.059 165.924ZM135.012 172.352C133.559 175.926 131.779 179.358 129.693 182.604L109.943 166.679L135.012 172.352ZM13.3941 132.032C14.3311 128.374 15.595 124.808 17.1706 121.377L51.3516 143.024L41.5007 143.667L13.3941 132.032ZM40.2472 143.747L11.4175 145.611C11.5807 141.216 12.1946 136.848 13.2495 132.578L40.2472 143.747ZM127.026 109.694L95.1587 128.689L99.144 119.369L119.826 101.595C122.42 104.098 124.801 106.813 126.945 109.711L127.026 109.694ZM81.5633 160.251L84.8738 161.006L84.7934 167.209L80.101 162.501L81.5633 160.251ZM79.7153 162.099L78.9922 161.376L80.2938 159.962L81.0009 160.122L79.7153 162.099ZM80.7116 159.512L80.8241 159.399L80.4224 159.046L80.117 159.367L77.4494 158.772L77.337 159.303L79.6832 159.833L78.6065 160.99L76.437 158.805L77.5137 158.644L84.9059 159.046V160.428L80.7116 159.512ZM86.3201 153.084H86.0951L85.5487 153.341V153.1H85.0184L87.5093 151.396L88.1682 152.136L86.3201 153.084ZM77.819 137.608L80.0206 135.728L80.7277 137.255L79.3457 138.074C78.8473 137.891 78.3373 137.74 77.819 137.624V137.608ZM73.1748 137.608L72.6606 137.351L73.1908 135.985L75.1032 137.367C74.4547 137.403 73.81 137.489 73.1748 137.624V137.608ZM71.8249 138.01C71.4336 138.15 71.0524 138.316 70.6839 138.508L70.9571 137.126L71.9695 137.64L71.8249 138.01ZM70.0733 138.846C68.7033 139.649 67.5287 140.747 66.6343 142.06L63.9024 133.671L70.475 136.885L70.0733 138.846ZM65.2522 145.033C64.9533 146.028 64.8017 147.062 64.8023 148.102C64.8023 148.359 64.8023 148.616 64.8023 148.857L63.5327 150.111L58.1332 146.704L65.2201 145.016L65.2522 145.033ZM64.9148 149.548C64.9787 150.01 65.0753 150.466 65.204 150.914L65.0755 151.075L64.0309 150.416L64.9148 149.548ZM65.5576 152.039C65.8423 152.756 66.2033 153.44 66.6343 154.08L64.272 153.1L65.2201 151.814L65.5576 152.039ZM67.2771 154.948C67.647 155.395 68.0557 155.809 68.4984 156.185L68.2413 158.306L59.6116 159.608L63.9506 153.566L67.2771 154.948ZM68.9966 156.555C69.2537 156.764 69.5108 156.94 69.8001 157.133V158.033L68.7555 158.194L68.9966 156.555ZM70.3465 157.455C70.6008 157.599 70.8637 157.728 71.1339 157.84L70.3786 157.969L70.3465 157.455ZM72.1302 158.242C72.5894 158.39 73.0561 158.513 73.5283 158.612L70.4589 159.624V158.515L72.1302 158.242ZM80.0367 138.315L81.017 137.737L81.708 139.344C81.1625 138.971 80.5874 138.643 79.9885 138.363L80.0367 138.315ZM83.2507 140.613H83.3954V140.822L83.2507 140.613ZM86.2397 147.443C86.2109 146.99 86.1573 146.54 86.079 146.093L86.9468 142.461L88.4574 142.767L86.4004 147.588L86.2397 147.443ZM85.7898 144.888C85.4622 143.829 84.9744 142.826 84.3435 141.915L86.3844 142.349L85.7898 144.888ZM84.1828 141.336L83.9899 140.629L86.8343 140.71L86.5612 141.819L84.1828 141.336ZM83.8614 140.083L82.9454 136.612L88.6181 133.221L87.0111 140.163L83.8614 140.083ZM83.2989 140.083V140.597C83.1061 140.388 82.8972 140.195 82.6883 140.003L81.5151 137.464L82.4793 136.901L83.2989 140.083ZM85.0024 153.228H85.0988V153.71L84.6167 153.935C84.6488 153.71 84.7934 153.501 84.922 153.276L85.0024 153.228ZM85.4684 152.248C85.804 151.473 86.0363 150.657 86.1594 149.821L87.2361 151.043L85.4684 152.248ZM86.3683 149.227L86.6897 148.472L88.6663 150.079L87.686 150.753L86.3683 149.227ZM86.9147 147.941L89.0842 142.879L96.8942 144.486L89.1324 149.789L86.9147 147.941ZM89.293 142.365L89.9841 140.758L101.78 141.079L97.5049 143.988L89.293 142.365ZM88.7306 142.252L87.1236 141.931L87.4129 140.726H89.3573L88.7306 142.252ZM87.5414 140.195L89.3091 132.803L93.9534 130.039L89.5984 140.244L87.5414 140.195ZM89.502 132.048L90.8197 126.488L98.1637 120.172L94.323 129.155L89.502 132.048ZM88.811 132.45L82.7044 136.146L82.1419 133.976L90.0001 127.227L88.811 132.45ZM82.3026 136.323L81.2741 136.949L80.5349 135.342L81.7723 134.282L82.3026 136.323ZM80.2938 134.716L76.7423 126.954L78.5904 122.133L81.6115 133.526L80.2938 134.716ZM79.8599 135.085L77.1762 137.399C76.8364 137.338 76.4928 137.3 76.1477 137.287L73.4801 135.342L76.4692 127.645L79.8599 135.085ZM73.0301 135.085L71.6481 134.089L74.0265 122.326L76.1638 127.034L73.0301 135.085ZM72.8212 135.632L72.2588 137.078L71.15 136.548L71.5356 134.683L72.8212 135.632ZM70.6518 136.29L63.6452 132.932L62.0382 127.886L70.9893 134.394L70.6518 136.29ZM66.12 142.044L64.4005 142.156L58.4707 130.907L63.2917 133.269L66.12 142.044ZM66.2968 142.59C65.9924 143.102 65.7343 143.639 65.5254 144.197L64.6737 142.59H66.2968ZM65.0112 144.486L57.5547 146.254L53.1033 143.442L64.0792 142.735L65.0112 144.486ZM63.0506 150.609L61.5401 152.103L52.123 148.198L57.3136 146.961L63.0506 150.609ZM63.5167 150.882L64.6416 151.605L63.6613 152.971L62.0543 152.312L63.5167 150.882ZM63.3239 153.437L58.7439 159.865L53.7139 160.621L61.6365 152.81L63.3239 153.437ZM59.1135 160.251L68.1449 158.901L67.936 160.508L56.0923 164.445L59.1135 160.251ZM68.7555 158.821L69.8804 158.644V159.865L68.4984 160.315L68.7555 158.821ZM69.9768 160.428L70.4589 169.877L66.9878 173.621L68.4984 160.91L69.9768 160.428ZM70.4911 170.616L70.7482 176L65.7826 183.681L66.8753 174.521L70.4911 170.616ZM70.4911 160.251L73.8658 159.126L73.7212 158.708H73.9944L76.9191 162.854L70.941 169.282L70.4911 160.251ZM74.7175 158.821H75.5371H75.7621L78.3011 161.376L77.2887 162.452L74.7175 158.821ZM79.185 158.226C81.0772 157.56 82.7466 156.381 84.006 154.819L85.1149 154.305L85.0345 158.531L79.185 158.226ZM85.613 154.064L86.2719 153.775L87.0272 158.596L85.5487 158.515L85.613 154.064ZM86.7701 153.534L88.6181 152.698L94.1462 159.03L87.5736 158.676L86.7701 153.534ZM89.1324 152.457L90.7394 151.75L100.124 159.351L94.9819 159.078L89.1324 152.457ZM88.7467 152.039L88.0396 151.22L89.1163 150.48L90.209 151.364L88.7467 152.039ZM89.5663 150.159L97.6013 144.663L102.615 145.659L90.7394 151.123L89.5663 150.159ZM98.2441 144.229L102.696 141.192L111.839 141.449L103.451 145.274L98.2441 144.229ZM103.451 140.678L133.405 120.204C134.9 123.315 136.146 126.539 137.134 129.846L112.868 140.967L103.451 140.678ZM102.535 140.678L90.193 140.34L94.7729 129.621L127.331 110.16C129.528 113.175 131.468 116.368 133.132 119.706L102.535 140.678ZM99.6583 118.179L110.023 93.9137C113.378 96.0468 116.525 98.4895 119.424 101.209L99.6583 118.179ZM98.678 119.015L91.0447 125.572L99.8672 88.6105C103.214 89.9871 106.44 91.6427 109.509 93.5601L98.678 119.015ZM90.3055 126.214L82.0615 133.301L78.9279 121.442L92.6356 86.184C94.91 86.8134 97.1472 87.5699 99.3368 88.4498L90.3055 126.214ZM78.6868 120.558L76.2442 111.301L81.7241 84.1913C85.2346 84.5302 88.7118 85.1536 92.1214 86.0554L78.6868 120.558ZM78.3654 121.41L76.437 126.359L74.2033 121.458L76.0031 112.491L78.3654 121.41ZM73.8336 120.622L58.1011 86.3286C61.5013 85.3787 64.9732 84.7069 68.4823 84.3198L75.6174 111.366L73.8336 120.622ZM73.6408 121.522L71.0857 133.8L61.7169 126.986L49.5196 89.398C52.125 88.2288 54.8101 87.246 57.5547 86.4571L73.6408 121.522ZM61.0419 126.343L53.0069 120.526L39.4919 94.9261C42.5458 92.8588 45.7717 91.0577 49.134 89.5426L61.0419 126.343ZM61.3311 127.243L63.0185 132.498L58.0207 130.023L53.505 121.683L61.3311 127.243ZM63.8059 142.156L52.3158 142.895L17.3474 120.879C18.6404 118.096 20.1335 115.411 21.8148 112.844L57.5386 130.521L63.8059 142.156ZM52.1712 143.474L56.7994 146.398L51.3998 147.7L42.5934 144.181L52.1712 143.474ZM61.2508 152.377L52.9426 160.556L14.053 166.39C13.1936 163.515 12.5385 160.583 12.0925 157.615L51.3516 148.279L61.2508 152.377ZM52.2998 161.183L45.3736 167.997L18.1509 177.028C16.5183 173.801 15.1635 170.441 14.1012 166.984L52.2998 161.183ZM53.1997 161.054L58.4546 160.267L55.2406 164.638L46.5627 167.531L53.1997 161.054ZM55.6424 165.104L67.952 161.006L66.345 174.184L40.5526 202.033C37.9474 200.33 35.4614 198.45 33.1121 196.409L55.6424 165.104ZM66.2647 175.084L65.1397 184.597L50.4999 207.095C47.2366 205.721 44.0969 204.071 41.115 202.162L66.2647 175.084ZM64.9951 185.802L61.9257 210.872C58.1596 210.062 54.4751 208.911 50.9178 207.433L64.9951 185.802ZM65.654 184.79L70.8286 176.755L72.6124 212.109C69.2261 211.956 65.857 211.537 62.5364 210.856L65.654 184.79ZM71.0214 169.973L77.2727 163.24L78.1726 164.526L71.2785 175.132L71.0214 169.973ZM77.6422 162.838L78.7029 161.681L79.4903 162.485L78.4939 164.092L77.6422 162.838ZM79.8921 162.838L84.8577 167.852V172.946L78.8957 164.477L79.8921 162.838ZM85.2916 174.618L90.7876 182.428L94.9979 209.2C91.6365 210.271 88.1906 211.056 84.697 211.547L85.2916 174.618ZM91.4947 183.424L106.247 204.411C102.817 206.277 99.2234 207.826 95.5122 209.04L91.4947 183.424ZM91.3018 182.235L89.8234 172.85L115.278 198.449C112.58 200.576 109.716 202.484 106.713 204.154L91.3018 182.235ZM90.5948 181.238L85.2916 173.702L85.388 168.382L89.1806 172.207L90.5948 181.238ZM85.4041 167.627L85.5005 161.006L87.4932 161.472L89.1002 171.291L85.4041 167.627ZM85.5166 160.476V158.965L87.1236 159.046L87.4129 160.894L85.5166 160.476ZM87.6539 159.078L94.6444 159.463L98.0191 163.304L87.9592 161.022L87.6539 159.078ZM95.3997 159.512L100.783 159.801L107.886 165.554L98.903 163.513L95.3997 159.512ZM100.976 159.271L91.2215 151.364L103.515 145.707L139.576 152.987C139.366 155.779 138.974 158.554 138.403 161.295L100.976 159.271ZM114.153 140.838L137.278 130.216C138.336 133.893 139.062 137.658 139.448 141.465L114.153 140.838ZM81.1777 84.0466L75.9067 110.144L69.0769 84.2395C71.2142 84.0306 73.3516 83.9181 75.5049 83.9181C77.3851 83.9181 79.2493 83.9984 81.0973 84.1591L81.1777 84.0466ZM39.0259 95.2957L51.9783 119.835L29.4802 103.443C32.374 100.447 35.5431 97.7303 38.9455 95.3278L39.0259 95.2957ZM29.0464 103.861L52.573 120.944L57.169 129.653L22.2005 112.394C24.2095 109.373 26.4729 106.529 28.966 103.893L29.0464 103.861ZM11.3693 146.157L41.34 144.181L50.4035 147.925L11.9318 157.085C11.5113 154.093 11.3019 151.075 11.305 148.054C11.305 147.395 11.3211 146.816 11.3372 146.19L11.3693 146.157ZM18.4562 177.478L44.554 168.816L25.1735 187.908C22.5878 184.672 20.3271 181.189 18.4241 177.51L18.4562 177.478ZM25.511 188.325L45.711 168.431L54.7264 165.442L32.7586 195.975C30.1343 193.632 27.7001 191.085 25.4788 188.357L25.511 188.325ZM73.0944 212.222L71.2785 176.096L78.4618 165.04L84.7131 173.943L84.1024 211.707C81.2573 212.082 78.3907 212.27 75.521 212.27C74.6854 212.302 73.8658 212.286 73.0623 212.254L73.0944 212.222ZM115.648 198.192L89.6466 172.014L88.0396 161.665L98.5976 164.059L122.703 191.652C120.508 194.017 118.139 196.214 115.616 198.224L115.648 198.192ZM123.04 191.266L99.4493 164.268L108.786 166.406L129.372 183.054C127.473 185.967 125.345 188.724 123.008 191.298L123.04 191.266Z" fill="#666666"/>
<path d="M206.074 155.221H205.479C205.479 155.044 205.479 154.883 205.479 154.723H206.074C206.168 154.723 206.258 154.685 206.324 154.619C206.39 154.553 206.428 154.463 206.428 154.369V153.469C206.428 153.424 206.418 153.378 206.4 153.336C206.383 153.294 206.356 153.256 206.323 153.225C206.29 153.193 206.251 153.169 206.208 153.153C206.165 153.137 206.12 153.13 206.074 153.132H205.479C205.479 152.955 205.479 152.794 205.479 152.634H206.074C206.12 152.632 206.165 152.62 206.206 152.6C206.247 152.581 206.284 152.552 206.314 152.518C206.344 152.483 206.367 152.443 206.381 152.399C206.395 152.356 206.4 152.31 206.395 152.264L206.315 151.364C206.303 151.273 206.256 151.19 206.184 151.133C206.112 151.076 206.021 151.05 205.929 151.059H205.335C205.335 150.882 205.335 150.721 205.335 150.561L205.929 150.464C206.018 150.445 206.095 150.392 206.146 150.318C206.197 150.243 206.217 150.152 206.203 150.062L206.058 149.162C206.039 149.074 205.986 148.997 205.911 148.946C205.837 148.895 205.745 148.875 205.656 148.889L205.062 148.986C205.062 148.825 204.981 148.664 204.949 148.504L205.528 148.359C205.617 148.333 205.692 148.273 205.737 148.191C205.782 148.11 205.794 148.015 205.769 147.925L205.544 147.057C205.517 146.967 205.458 146.891 205.377 146.843C205.297 146.796 205.201 146.78 205.11 146.8L204.547 146.961C204.547 146.8 204.435 146.656 204.387 146.479L204.949 146.286C204.993 146.274 205.034 146.252 205.068 146.223C205.103 146.193 205.132 146.157 205.151 146.116C205.171 146.075 205.182 146.03 205.183 145.985C205.184 145.939 205.176 145.894 205.158 145.852L204.853 145C204.838 144.958 204.816 144.919 204.786 144.885C204.756 144.852 204.72 144.824 204.68 144.805C204.639 144.785 204.595 144.774 204.551 144.772C204.506 144.77 204.461 144.776 204.419 144.791L203.856 145C203.776 144.84 203.728 144.679 203.664 144.534L204.194 144.277C204.235 144.26 204.273 144.234 204.305 144.202C204.336 144.17 204.361 144.131 204.377 144.089C204.394 144.048 204.402 144.003 204.4 143.958C204.399 143.913 204.389 143.868 204.371 143.827L203.985 143.008C203.967 142.966 203.942 142.928 203.91 142.897C203.877 142.866 203.839 142.841 203.797 142.824C203.755 142.808 203.711 142.8 203.665 142.801C203.62 142.802 203.576 142.812 203.535 142.831L202.973 143.088L202.748 142.654L203.278 142.349C203.316 142.326 203.349 142.295 203.375 142.259C203.402 142.223 203.421 142.183 203.431 142.139C203.442 142.096 203.443 142.051 203.436 142.007C203.429 141.963 203.414 141.921 203.39 141.883L202.86 140.967C202.838 140.927 202.809 140.893 202.774 140.865C202.738 140.837 202.698 140.816 202.654 140.804C202.611 140.792 202.565 140.789 202.521 140.795C202.476 140.801 202.433 140.815 202.394 140.838L201.88 141.143C201.783 140.999 201.703 140.854 201.607 140.726L202.089 140.372C202.128 140.348 202.161 140.316 202.188 140.278C202.214 140.24 202.232 140.197 202.241 140.152C202.25 140.107 202.25 140.06 202.24 140.015C202.231 139.97 202.212 139.928 202.185 139.89L201.671 139.151C201.645 139.113 201.612 139.081 201.574 139.056C201.535 139.031 201.492 139.015 201.447 139.007C201.402 139 201.356 139.002 201.311 139.012C201.267 139.023 201.225 139.043 201.189 139.07L200.691 139.408L200.385 139.022L200.851 138.637C200.883 138.605 200.909 138.568 200.926 138.526C200.944 138.485 200.953 138.44 200.953 138.396C200.953 138.351 200.944 138.306 200.926 138.265C200.909 138.223 200.883 138.186 200.851 138.154L200.289 137.447C200.221 137.385 200.132 137.351 200.04 137.351C199.948 137.351 199.859 137.385 199.791 137.447L199.325 137.849C199.228 137.721 199.1 137.608 199.003 137.496L199.421 137.046C199.455 137.015 199.483 136.978 199.501 136.937C199.52 136.895 199.53 136.85 199.53 136.805C199.53 136.759 199.52 136.714 199.501 136.672C199.483 136.631 199.455 136.594 199.421 136.564L198.778 135.921C198.747 135.889 198.709 135.863 198.668 135.846C198.627 135.828 198.582 135.819 198.537 135.819C198.492 135.819 198.448 135.828 198.406 135.846C198.365 135.863 198.328 135.889 198.296 135.921L197.862 136.339L197.509 136.001L197.878 135.535C197.91 135.504 197.936 135.466 197.953 135.425C197.971 135.383 197.98 135.339 197.98 135.294C197.98 135.249 197.971 135.205 197.953 135.163C197.936 135.122 197.91 135.084 197.878 135.053L197.187 134.458C197.122 134.397 197.036 134.363 196.946 134.363C196.857 134.363 196.771 134.397 196.705 134.458L196.303 134.94L195.918 134.619L196.255 134.137C196.287 134.106 196.313 134.068 196.33 134.027C196.348 133.985 196.356 133.941 196.356 133.896C196.356 133.851 196.348 133.807 196.33 133.765C196.313 133.724 196.287 133.686 196.255 133.655L195.516 133.125C195.441 133.073 195.349 133.053 195.259 133.068C195.169 133.083 195.088 133.132 195.034 133.205L194.696 133.719L194.263 133.446L194.568 132.932C194.616 132.853 194.631 132.758 194.61 132.668C194.589 132.578 194.534 132.499 194.455 132.45L193.652 132C193.613 131.977 193.57 131.962 193.525 131.956C193.481 131.95 193.435 131.954 193.392 131.966C193.348 131.978 193.308 131.998 193.272 132.026C193.237 132.054 193.208 132.089 193.186 132.128L192.897 132.642L192.447 132.417L192.704 131.871C192.743 131.788 192.748 131.692 192.718 131.605C192.688 131.518 192.625 131.447 192.543 131.405L191.723 131.035C191.64 130.996 191.545 130.991 191.458 131.021C191.371 131.051 191.299 131.114 191.257 131.196L191 131.726L190.55 131.55L190.759 130.987C190.782 130.902 190.774 130.811 190.735 130.732C190.697 130.652 190.631 130.589 190.55 130.553L189.699 130.232C189.656 130.214 189.609 130.206 189.563 130.207C189.516 130.208 189.47 130.218 189.428 130.238C189.386 130.257 189.348 130.286 189.317 130.321C189.286 130.356 189.263 130.396 189.249 130.441L189.056 131.003L188.574 130.843L188.734 130.28C188.759 130.191 188.748 130.095 188.703 130.014C188.658 129.933 188.583 129.872 188.493 129.846L187.61 129.605C187.52 129.586 187.427 129.602 187.349 129.649C187.271 129.697 187.215 129.774 187.192 129.862L187.031 130.441L186.549 130.328L186.661 129.75C186.675 129.658 186.653 129.565 186.599 129.49C186.545 129.415 186.463 129.364 186.372 129.348L185.488 129.187C185.444 129.178 185.398 129.178 185.354 129.187C185.309 129.195 185.267 129.213 185.229 129.239C185.192 129.264 185.16 129.297 185.135 129.335C185.111 129.373 185.094 129.416 185.087 129.461L184.974 130.055H184.492V129.461C184.499 129.415 184.496 129.369 184.484 129.324C184.472 129.279 184.451 129.238 184.423 129.202C184.394 129.166 184.358 129.136 184.318 129.114C184.277 129.092 184.233 129.079 184.187 129.075H183.287C183.242 129.07 183.198 129.075 183.155 129.088C183.112 129.101 183.073 129.122 183.038 129.151C183.004 129.179 182.975 129.214 182.955 129.253C182.934 129.293 182.921 129.336 182.917 129.38V129.975H182.435V129.38C182.435 129.335 182.426 129.289 182.408 129.247C182.39 129.205 182.364 129.167 182.33 129.136C182.297 129.104 182.258 129.08 182.216 129.064C182.173 129.048 182.127 129.041 182.081 129.043H181.182C181.136 129.041 181.09 129.048 181.047 129.064C181.005 129.08 180.965 129.104 180.932 129.136C180.899 129.167 180.873 129.205 180.855 129.247C180.837 129.289 180.828 129.335 180.828 129.38V129.975H180.362V129.38C180.346 129.291 180.298 129.21 180.227 129.154C180.156 129.098 180.067 129.07 179.976 129.075H179.076C179.03 129.079 178.985 129.092 178.943 129.114C178.902 129.135 178.865 129.165 178.835 129.201C178.805 129.237 178.783 129.278 178.769 129.323C178.755 129.367 178.751 129.414 178.755 129.461V130.055H178.273L178.176 129.461C178.169 129.416 178.152 129.373 178.128 129.335C178.103 129.297 178.071 129.264 178.034 129.239C177.996 129.213 177.954 129.195 177.909 129.187C177.865 129.178 177.819 129.178 177.775 129.187L176.875 129.348C176.787 129.367 176.709 129.42 176.658 129.495C176.607 129.569 176.587 129.661 176.601 129.75L176.714 130.328L176.216 130.441L176.071 129.862C176.048 129.816 176.015 129.775 175.975 129.742C175.935 129.71 175.888 129.685 175.838 129.672C175.788 129.658 175.736 129.655 175.685 129.663C175.633 129.671 175.584 129.69 175.541 129.718L174.673 129.959C174.628 129.968 174.586 129.987 174.548 130.013C174.51 130.039 174.479 130.073 174.455 130.112C174.43 130.151 174.415 130.195 174.408 130.24C174.401 130.286 174.404 130.332 174.416 130.377L174.577 130.955L174.111 131.116L173.902 130.553C173.889 130.51 173.868 130.469 173.839 130.434C173.809 130.399 173.773 130.371 173.732 130.351C173.691 130.331 173.646 130.321 173.601 130.319C173.555 130.318 173.51 130.327 173.468 130.344L172.616 130.666C172.574 130.68 172.535 130.703 172.501 130.733C172.467 130.762 172.44 130.799 172.421 130.839C172.401 130.879 172.39 130.923 172.388 130.968C172.385 131.013 172.392 131.058 172.407 131.1L172.616 131.662L172.15 131.839L171.893 131.309C171.852 131.226 171.78 131.164 171.693 131.134C171.606 131.104 171.51 131.109 171.427 131.148L170.607 131.518C170.525 131.559 170.462 131.631 170.432 131.718C170.402 131.805 170.408 131.9 170.447 131.984L170.704 132.53L170.254 132.755L169.965 132.241C169.943 132.201 169.913 132.166 169.878 132.139C169.843 132.111 169.802 132.09 169.759 132.078C169.715 132.066 169.67 132.063 169.625 132.069C169.581 132.075 169.537 132.089 169.499 132.112L168.711 132.562C168.63 132.609 168.571 132.686 168.547 132.777C168.523 132.867 168.536 132.963 168.583 133.044L168.888 133.558L168.454 133.832L168.117 133.317C168.062 133.244 167.981 133.195 167.892 133.181C167.802 133.166 167.71 133.186 167.634 133.237L166.895 133.767C166.864 133.797 166.838 133.834 166.821 133.874C166.804 133.914 166.795 133.957 166.795 134C166.795 134.044 166.804 134.087 166.821 134.127C166.838 134.167 166.864 134.203 166.895 134.233L167.233 134.732L166.847 135.053L166.461 134.571C166.393 134.509 166.304 134.474 166.212 134.474C166.12 134.474 166.031 134.509 165.963 134.571L165.272 135.165C165.24 135.197 165.215 135.234 165.197 135.276C165.18 135.317 165.171 135.362 165.171 135.407C165.171 135.451 165.18 135.496 165.197 135.537C165.215 135.579 165.24 135.616 165.272 135.648L165.658 136.114L165.288 136.451L164.87 136.017C164.802 135.955 164.713 135.921 164.621 135.921C164.529 135.921 164.44 135.955 164.372 136.017L163.729 136.66C163.697 136.691 163.672 136.729 163.655 136.77C163.637 136.812 163.628 136.856 163.628 136.901C163.628 136.946 163.637 136.99 163.655 137.032C163.672 137.073 163.697 137.111 163.729 137.142L164.163 137.576L163.826 137.946L163.36 137.544C163.294 137.483 163.208 137.449 163.119 137.449C163.029 137.449 162.943 137.483 162.878 137.544L162.299 138.251C162.268 138.281 162.242 138.317 162.225 138.357C162.208 138.397 162.199 138.44 162.199 138.484C162.199 138.527 162.208 138.571 162.225 138.611C162.242 138.651 162.268 138.687 162.299 138.717L162.765 139.119L162.46 139.504L161.978 139.167C161.941 139.139 161.9 139.12 161.855 139.109C161.811 139.098 161.765 139.096 161.72 139.104C161.674 139.111 161.631 139.128 161.593 139.153C161.554 139.177 161.521 139.209 161.496 139.247L160.965 139.987C160.916 140.064 160.898 140.157 160.916 140.247C160.934 140.337 160.986 140.416 161.062 140.469L161.544 140.822L161.287 141.24L160.756 140.935C160.718 140.912 160.674 140.897 160.63 140.891C160.585 140.885 160.54 140.889 160.496 140.901C160.453 140.913 160.412 140.933 160.377 140.961C160.342 140.989 160.312 141.024 160.29 141.063L159.84 141.851C159.818 141.889 159.803 141.933 159.797 141.977C159.791 142.022 159.794 142.067 159.806 142.111C159.818 142.154 159.839 142.195 159.867 142.23C159.895 142.265 159.93 142.295 159.969 142.317L160.483 142.622C160.403 142.767 160.323 142.911 160.258 143.056L159.712 142.799C159.627 142.761 159.53 142.758 159.442 142.791C159.355 142.824 159.284 142.89 159.246 142.976L158.876 143.795C158.855 143.835 158.842 143.878 158.839 143.923C158.835 143.968 158.841 144.013 158.856 144.056C158.872 144.098 158.895 144.137 158.927 144.17C158.958 144.202 158.995 144.228 159.037 144.245L159.567 144.502C159.567 144.647 159.455 144.807 159.391 144.968L158.828 144.743C158.738 144.717 158.642 144.726 158.559 144.767C158.475 144.809 158.411 144.881 158.378 144.968L158.073 145.82C158.055 145.862 158.047 145.907 158.048 145.953C158.049 145.998 158.06 146.043 158.079 146.084C158.099 146.125 158.127 146.161 158.162 146.191C158.197 146.22 158.238 146.241 158.282 146.254L158.844 146.447C158.8 146.61 158.747 146.771 158.683 146.929L158.121 146.768C158.029 146.748 157.934 146.763 157.853 146.811C157.773 146.859 157.713 146.935 157.687 147.025L157.462 147.893C157.441 147.982 157.454 148.076 157.499 148.156C157.544 148.237 157.616 148.297 157.703 148.327L158.282 148.471C158.282 148.632 158.201 148.793 158.169 148.954L157.591 148.857C157.546 148.848 157.5 148.848 157.456 148.856C157.412 148.865 157.369 148.883 157.332 148.908C157.294 148.934 157.262 148.967 157.238 149.005C157.213 149.043 157.197 149.086 157.189 149.13L157.028 150.03C157.017 150.119 157.039 150.208 157.089 150.282C157.14 150.356 157.215 150.409 157.301 150.432L157.896 150.528C157.887 150.694 157.887 150.861 157.896 151.027H157.285C157.241 151.02 157.195 151.022 157.151 151.035C157.108 151.047 157.067 151.068 157.032 151.097C156.997 151.125 156.969 151.161 156.949 151.202C156.929 151.242 156.917 151.287 156.916 151.332L156.835 152.232C156.829 152.277 156.831 152.322 156.843 152.366C156.855 152.41 156.876 152.45 156.905 152.485C156.934 152.52 156.97 152.548 157.011 152.568C157.051 152.588 157.095 152.6 157.141 152.601H157.735V153.1H157.125C157.079 153.097 157.033 153.105 156.991 153.121C156.948 153.137 156.909 153.161 156.876 153.193C156.842 153.224 156.816 153.262 156.798 153.304C156.78 153.346 156.771 153.391 156.771 153.437V154.337C156.771 154.383 156.78 154.429 156.798 154.472C156.816 154.515 156.842 154.554 156.875 154.587C156.907 154.62 156.946 154.646 156.989 154.664C157.032 154.681 157.078 154.691 157.125 154.691H157.735V155.189H157.141C157.096 155.193 157.053 155.206 157.014 155.226C156.974 155.247 156.939 155.276 156.911 155.31C156.883 155.344 156.861 155.384 156.848 155.427C156.835 155.469 156.831 155.514 156.835 155.558L156.916 156.458C156.915 156.505 156.925 156.551 156.944 156.594C156.963 156.636 156.991 156.674 157.026 156.704C157.061 156.735 157.103 156.758 157.147 156.771C157.192 156.784 157.239 156.787 157.285 156.78H157.896C157.896 156.94 157.896 157.101 157.896 157.262L157.301 157.374C157.214 157.39 157.137 157.439 157.086 157.511C157.035 157.583 157.014 157.673 157.028 157.76L157.189 158.66C157.195 158.706 157.21 158.75 157.233 158.79C157.257 158.83 157.289 158.865 157.327 158.892C157.364 158.919 157.407 158.938 157.453 158.948C157.498 158.958 157.545 158.958 157.591 158.949L158.169 158.837C158.169 158.997 158.25 159.158 158.282 159.319L157.703 159.479C157.618 159.506 157.545 159.563 157.5 159.641C157.456 159.718 157.442 159.81 157.462 159.897L157.687 160.781C157.713 160.867 157.771 160.939 157.848 160.984C157.926 161.029 158.018 161.042 158.105 161.022L158.683 160.862C158.683 161.022 158.796 161.183 158.844 161.344L158.282 161.536C158.237 161.551 158.196 161.574 158.161 161.605C158.126 161.636 158.098 161.673 158.079 161.716C158.059 161.758 158.048 161.804 158.047 161.85C158.046 161.897 158.055 161.943 158.073 161.986L158.378 162.822C158.392 162.866 158.416 162.907 158.446 162.942C158.477 162.977 158.515 163.005 158.557 163.025C158.6 163.045 158.645 163.055 158.692 163.056C158.739 163.057 158.785 163.049 158.828 163.031L159.391 162.822C159.391 162.983 159.503 163.143 159.567 163.288L159.037 163.545C158.995 163.562 158.958 163.588 158.927 163.621C158.895 163.653 158.872 163.692 158.856 163.734C158.841 163.777 158.835 163.822 158.839 163.867C158.842 163.912 158.855 163.955 158.876 163.995L159.246 164.831C159.287 164.913 159.359 164.976 159.446 165.006C159.533 165.036 159.629 165.031 159.712 164.992L160.258 164.734C160.258 164.879 160.403 165.04 160.483 165.184L159.969 165.49C159.928 165.51 159.891 165.538 159.862 165.573C159.833 165.608 159.811 165.649 159.799 165.694C159.787 165.738 159.784 165.784 159.791 165.829C159.799 165.874 159.815 165.917 159.84 165.956L160.29 166.743C160.312 166.783 160.342 166.817 160.377 166.845C160.412 166.873 160.453 166.894 160.496 166.906C160.54 166.918 160.585 166.921 160.63 166.915C160.674 166.909 160.718 166.894 160.756 166.872L161.287 166.566L161.544 166.968L161.062 167.322C160.986 167.374 160.934 167.453 160.916 167.543C160.898 167.633 160.916 167.727 160.965 167.804L161.496 168.543C161.521 168.581 161.554 168.613 161.593 168.638C161.631 168.662 161.674 168.679 161.72 168.686C161.765 168.694 161.811 168.692 161.855 168.681C161.9 168.671 161.941 168.651 161.978 168.623L162.46 168.286L162.765 168.672L162.299 169.057C162.233 169.123 162.197 169.213 162.197 169.306C162.197 169.4 162.233 169.489 162.299 169.555L162.878 170.246C162.909 170.278 162.947 170.304 162.988 170.321C163.029 170.339 163.074 170.348 163.119 170.348C163.164 170.348 163.208 170.339 163.25 170.321C163.291 170.304 163.328 170.278 163.36 170.246L163.826 169.845L164.163 170.214L163.729 170.648C163.697 170.68 163.672 170.717 163.655 170.758C163.637 170.8 163.628 170.844 163.628 170.889C163.628 170.934 163.637 170.979 163.655 171.02C163.672 171.061 163.697 171.099 163.729 171.13L164.372 171.789C164.44 171.851 164.529 171.886 164.621 171.886C164.713 171.886 164.802 171.851 164.87 171.789L165.288 171.355C165.417 171.468 165.529 171.596 165.658 171.693L165.272 172.159C165.24 172.19 165.215 172.228 165.197 172.269C165.18 172.31 165.171 172.355 165.171 172.4C165.171 172.445 165.18 172.489 165.197 172.531C165.215 172.572 165.24 172.609 165.272 172.641L165.963 173.235C166.033 173.294 166.121 173.327 166.212 173.327C166.303 173.327 166.392 173.294 166.461 173.235L166.847 172.769L167.233 173.075L166.895 173.573C166.863 173.604 166.838 173.642 166.82 173.683C166.803 173.725 166.794 173.769 166.794 173.814C166.794 173.859 166.803 173.903 166.82 173.945C166.838 173.986 166.863 174.024 166.895 174.055L167.634 174.569C167.666 174.601 167.703 174.627 167.745 174.644C167.786 174.662 167.831 174.671 167.875 174.671C167.92 174.671 167.965 174.662 168.006 174.644C168.048 174.627 168.085 174.601 168.117 174.569L168.454 174.071L168.888 174.328L168.583 174.859C168.557 174.897 168.541 174.94 168.534 174.985C168.526 175.03 168.529 175.077 168.541 175.121C168.553 175.165 168.575 175.206 168.604 175.241C168.633 175.276 168.67 175.305 168.711 175.325L169.499 175.774C169.536 175.8 169.578 175.818 169.623 175.826C169.667 175.834 169.713 175.833 169.757 175.823C169.801 175.812 169.842 175.792 169.878 175.764C169.914 175.737 169.943 175.702 169.965 175.662L170.254 175.132L170.704 175.373L170.447 175.903C170.408 175.986 170.402 176.082 170.432 176.169C170.462 176.256 170.525 176.328 170.607 176.369L171.427 176.755C171.512 176.793 171.609 176.796 171.696 176.762C171.784 176.729 171.854 176.663 171.893 176.578L172.15 176.048L172.616 176.224L172.407 176.803C172.392 176.845 172.385 176.89 172.388 176.935C172.39 176.979 172.401 177.023 172.421 177.064C172.44 177.104 172.467 177.14 172.501 177.17C172.535 177.2 172.574 177.222 172.616 177.237L173.468 177.542C173.551 177.574 173.643 177.571 173.724 177.535C173.806 177.499 173.869 177.432 173.902 177.349L174.111 176.771L174.577 176.932L174.416 177.51C174.404 177.554 174.401 177.601 174.408 177.646C174.415 177.692 174.43 177.735 174.455 177.774C174.479 177.814 174.51 177.847 174.548 177.874C174.586 177.9 174.628 177.919 174.673 177.928L175.541 178.169C175.632 178.189 175.728 178.174 175.808 178.126C175.889 178.078 175.949 178.002 175.975 177.912L176.119 177.333L176.618 177.446L176.505 178.04C176.491 178.13 176.511 178.221 176.562 178.296C176.613 178.37 176.69 178.423 176.778 178.442L177.678 178.587C177.722 178.596 177.767 178.596 177.81 178.587C177.854 178.578 177.895 178.56 177.931 178.535C177.967 178.509 177.998 178.476 178.021 178.438C178.043 178.4 178.058 178.358 178.064 178.314L178.176 177.719H178.659V178.314C178.654 178.36 178.659 178.407 178.673 178.451C178.687 178.496 178.709 178.538 178.739 178.573C178.769 178.609 178.805 178.639 178.847 178.66C178.888 178.682 178.933 178.695 178.98 178.699H179.88C179.972 178.701 180.061 178.669 180.132 178.61C180.203 178.551 180.25 178.469 180.266 178.378V177.783H180.748V178.394C180.748 178.44 180.757 178.485 180.775 178.527C180.793 178.569 180.819 178.607 180.852 178.638C180.885 178.67 180.924 178.695 180.967 178.711C181.01 178.727 181.056 178.734 181.101 178.731H181.969C182.015 178.734 182.06 178.727 182.103 178.711C182.146 178.695 182.185 178.67 182.218 178.638C182.251 178.607 182.277 178.569 182.295 178.527C182.313 178.485 182.322 178.44 182.322 178.394V177.783H182.805V178.378C182.807 178.424 182.818 178.469 182.838 178.51C182.858 178.551 182.886 178.588 182.92 178.618C182.955 178.648 182.995 178.671 183.039 178.685C183.082 178.699 183.129 178.704 183.174 178.699H184.074C184.121 178.698 184.167 178.686 184.209 178.665C184.251 178.644 184.287 178.614 184.317 178.578C184.346 178.541 184.366 178.498 184.377 178.452C184.388 178.407 184.389 178.359 184.379 178.314V177.719H184.862L184.958 178.314C184.977 178.405 185.032 178.485 185.11 178.537C185.189 178.588 185.284 178.606 185.376 178.587L186.26 178.442C186.305 178.437 186.349 178.422 186.389 178.398C186.428 178.374 186.462 178.342 186.488 178.304C186.514 178.266 186.531 178.222 186.539 178.177C186.547 178.132 186.545 178.085 186.533 178.04L186.436 177.446L186.919 177.333L187.079 177.912C187.089 177.957 187.107 177.999 187.133 178.037C187.16 178.075 187.194 178.106 187.233 178.13C187.272 178.155 187.315 178.17 187.361 178.177C187.406 178.184 187.453 178.181 187.497 178.169L188.381 177.928C188.466 177.902 188.539 177.844 188.584 177.766C188.628 177.689 188.642 177.597 188.622 177.51L188.461 176.932L188.943 176.771L189.136 177.349C189.152 177.392 189.177 177.432 189.208 177.465C189.24 177.498 189.278 177.524 189.32 177.542C189.362 177.56 189.407 177.57 189.453 177.57C189.499 177.57 189.544 177.56 189.586 177.542L190.438 177.237C190.519 177.201 190.584 177.138 190.623 177.059C190.661 176.979 190.67 176.888 190.647 176.803L190.438 176.224L190.888 176.048L191.145 176.578C191.184 176.663 191.254 176.729 191.342 176.762C191.429 176.796 191.526 176.793 191.611 176.755L192.431 176.369C192.513 176.328 192.576 176.256 192.606 176.169C192.636 176.082 192.63 175.986 192.591 175.903L192.334 175.373L192.784 175.132L193.073 175.662C193.095 175.702 193.124 175.737 193.16 175.764C193.196 175.792 193.237 175.812 193.281 175.823C193.325 175.833 193.371 175.834 193.415 175.826C193.46 175.818 193.502 175.8 193.539 175.774L194.343 175.325C194.381 175.301 194.414 175.271 194.441 175.235C194.467 175.199 194.486 175.158 194.496 175.115C194.507 175.072 194.509 175.027 194.502 174.983C194.494 174.939 194.479 174.896 194.455 174.859L194.15 174.328L194.584 174.071L194.921 174.569C194.953 174.601 194.99 174.627 195.032 174.644C195.073 174.662 195.118 174.671 195.163 174.671C195.207 174.671 195.252 174.662 195.293 174.644C195.335 174.627 195.372 174.601 195.403 174.569L196.143 174.055C196.175 174.024 196.2 173.986 196.218 173.945C196.235 173.903 196.244 173.859 196.244 173.814C196.244 173.769 196.235 173.725 196.218 173.683C196.2 173.642 196.175 173.604 196.143 173.573L195.805 173.075L196.191 172.769L196.577 173.235C196.646 173.294 196.735 173.327 196.826 173.327C196.917 173.327 197.005 173.294 197.075 173.235L197.766 172.641C197.798 172.609 197.823 172.572 197.841 172.531C197.858 172.489 197.867 172.445 197.867 172.4C197.867 172.355 197.858 172.31 197.841 172.269C197.823 172.228 197.798 172.19 197.766 172.159L197.396 171.693L197.75 171.355L198.184 171.789C198.249 171.85 198.335 171.884 198.425 171.884C198.514 171.884 198.6 171.85 198.666 171.789L199.309 171.13C199.343 171.1 199.37 171.063 199.389 171.021C199.408 170.98 199.417 170.935 199.417 170.889C199.417 170.844 199.408 170.799 199.389 170.757C199.37 170.715 199.343 170.678 199.309 170.648L198.891 170.214C198.987 170.086 199.116 169.973 199.212 169.845L199.678 170.246C199.744 170.312 199.834 170.349 199.927 170.349C200.021 170.349 200.11 170.312 200.176 170.246L200.739 169.555C200.805 169.489 200.841 169.4 200.841 169.306C200.841 169.213 200.805 169.123 200.739 169.057L200.273 168.672L200.578 168.286L201.076 168.623C201.113 168.651 201.154 168.671 201.199 168.681C201.243 168.692 201.289 168.694 201.335 168.686C201.38 168.679 201.423 168.662 201.461 168.638C201.5 168.613 201.533 168.581 201.558 168.543L202.073 167.804C202.099 167.766 202.118 167.724 202.128 167.679C202.137 167.634 202.138 167.587 202.129 167.542C202.12 167.497 202.101 167.454 202.075 167.416C202.049 167.378 202.015 167.346 201.976 167.322L201.494 166.968L201.767 166.566L202.282 166.872C202.363 166.914 202.458 166.925 202.548 166.901C202.637 166.877 202.714 166.821 202.764 166.743L203.198 165.956C203.221 165.918 203.237 165.876 203.244 165.832C203.251 165.788 203.249 165.743 203.238 165.699C203.228 165.656 203.209 165.615 203.183 165.579C203.156 165.543 203.123 165.513 203.085 165.49L202.555 165.184C202.635 165.04 202.699 164.879 202.78 164.734L203.342 164.992C203.382 165.011 203.426 165.022 203.47 165.024C203.514 165.026 203.559 165.019 203.6 165.004C203.642 164.99 203.681 164.967 203.714 164.937C203.746 164.907 203.773 164.871 203.792 164.831L204.178 163.995C204.196 163.954 204.206 163.91 204.208 163.865C204.209 163.82 204.201 163.775 204.184 163.733C204.168 163.691 204.143 163.653 204.112 163.621C204.08 163.588 204.043 163.563 204.001 163.545L203.471 163.288C203.471 163.143 203.583 162.983 203.664 162.822L204.226 163.031C204.268 163.049 204.313 163.057 204.359 163.056C204.404 163.055 204.449 163.044 204.49 163.024C204.531 163.005 204.567 162.976 204.597 162.941C204.626 162.907 204.647 162.866 204.66 162.822L204.965 161.986C204.983 161.943 204.992 161.897 204.991 161.85C204.99 161.804 204.979 161.758 204.959 161.716C204.94 161.673 204.911 161.636 204.877 161.605C204.842 161.574 204.801 161.551 204.756 161.536L204.194 161.344C204.194 161.183 204.306 161.022 204.355 160.862L204.917 161.022C205.007 161.047 205.102 161.036 205.183 160.991C205.265 160.946 205.325 160.87 205.351 160.781L205.576 159.897C205.588 159.854 205.591 159.809 205.586 159.764C205.58 159.72 205.566 159.677 205.543 159.638C205.521 159.599 205.491 159.565 205.455 159.538C205.419 159.51 205.378 159.491 205.335 159.479L204.756 159.319C204.756 159.158 204.837 158.997 204.869 158.837L205.463 158.949C205.515 159.007 205.584 159.047 205.661 159.061C205.737 159.076 205.816 159.065 205.886 159.03C205.955 158.996 206.011 158.939 206.045 158.869C206.079 158.799 206.09 158.72 206.074 158.644L206.219 157.744C206.228 157.7 206.228 157.656 206.219 157.612C206.21 157.569 206.192 157.527 206.167 157.491C206.141 157.455 206.108 157.424 206.07 157.402C206.032 157.379 205.989 157.364 205.945 157.358L205.351 157.246C205.351 157.085 205.351 156.924 205.351 156.764H205.945C205.992 156.768 206.039 156.763 206.083 156.749C206.128 156.736 206.169 156.713 206.205 156.683C206.241 156.653 206.271 156.617 206.292 156.575C206.314 156.534 206.327 156.489 206.331 156.442L206.412 155.542C206.404 155.457 206.365 155.377 206.303 155.318C206.241 155.259 206.16 155.224 206.074 155.221ZM196.432 167.788C195.743 168.233 194.91 168.398 194.103 168.248C193.296 168.099 192.577 167.647 192.093 166.984L185.761 158.29C185.574 158.016 185.423 157.719 185.312 157.406C185.1 156.759 185.1 156.061 185.312 155.414C185.471 154.936 185.74 154.503 186.097 154.148C186.454 153.794 186.89 153.528 187.368 153.373L197.91 149.934C198.701 149.68 199.56 149.743 200.306 150.108C201.052 150.474 201.628 151.114 201.912 151.894C201.905 151.942 201.905 151.991 201.912 152.039C202.841 154.903 202.808 157.991 201.819 160.834C200.829 163.677 198.938 166.119 196.432 167.788ZM189.586 172.496H189.49C187.046 174.262 184.091 175.18 181.076 175.111C178.062 175.041 175.153 173.988 172.793 172.111C172.153 171.593 171.736 170.849 171.628 170.032C171.521 169.216 171.731 168.39 172.214 167.723L178.53 159.029C178.724 158.755 178.963 158.516 179.237 158.322C179.784 157.926 180.442 157.713 181.117 157.712C181.622 157.713 182.119 157.833 182.568 158.062C183.018 158.291 183.407 158.622 183.705 159.029L190.229 167.997C190.48 168.337 190.661 168.724 190.762 169.135C190.863 169.545 190.882 169.972 190.817 170.39C190.753 170.808 190.607 171.209 190.388 171.57C190.168 171.932 189.879 172.247 189.538 172.496H189.586ZM170.72 166.856C170.23 167.526 169.499 167.981 168.682 168.125C167.864 168.268 167.022 168.09 166.333 167.627H166.22C163.763 165.85 161.96 163.313 161.088 160.408C160.217 157.504 160.326 154.393 161.399 151.557C161.693 150.789 162.27 150.163 163.011 149.807C163.752 149.451 164.602 149.393 165.385 149.645L175.605 152.955C175.927 153.065 176.23 153.222 176.505 153.421C177.05 153.822 177.455 154.384 177.662 155.028C177.818 155.506 177.861 156.013 177.785 156.51C177.71 157.007 177.519 157.479 177.228 157.889L170.72 166.856ZM186.067 134.073H186.195C189.208 134.078 192.136 135.069 194.532 136.894C196.929 138.719 198.663 141.278 199.469 144.181C199.687 144.977 199.59 145.828 199.198 146.555C198.806 147.282 198.15 147.83 197.364 148.086L187.143 151.396C186.828 151.504 186.497 151.558 186.163 151.557C185.488 151.556 184.83 151.342 184.283 150.946C183.876 150.649 183.544 150.259 183.315 149.81C183.086 149.36 182.966 148.863 182.965 148.359V137.271C182.968 136.448 183.287 135.658 183.855 135.063C184.423 134.468 185.197 134.114 186.019 134.073H186.067ZM180.491 148.054C180.495 148.387 180.44 148.719 180.33 149.034C180.065 149.84 179.492 150.508 178.737 150.893C177.981 151.279 177.104 151.35 176.296 151.091L165.77 147.668C164.981 147.409 164.322 146.854 163.932 146.12C163.543 145.386 163.453 144.53 163.681 143.731C163.681 143.731 163.681 143.634 163.681 143.602C164.618 140.737 166.466 138.256 168.944 136.538C171.422 134.821 174.393 133.961 177.405 134.089C178.229 134.13 179.006 134.487 179.575 135.085C180.143 135.683 180.459 136.477 180.458 137.303L180.491 148.054Z" fill="#666666"/>
<path d="M324.655 142.783C324.262 142.789 323.872 142.854 323.498 142.975C323.411 142.796 323.309 142.624 323.193 142.461C316.797 134.43 311.947 125.281 308.89 115.48C306.544 108.425 301.289 92.1458 296.034 75.8026C297.4 75.7062 299.104 75.5454 299.248 76.4132C299.57 77.6827 304.359 76.7346 305.676 76.7346C306.994 76.7346 305.677 70.6601 305.355 69.6959C305.034 68.7317 301.53 69.3745 300.534 69.6959C299.538 70.0173 300.534 63.9589 298.927 64.2642C298.799 62.4805 298.654 59.5557 298.654 56.0364C298.654 53.1116 298.75 49.7851 299.072 46.3943C299.072 45.9604 299.152 45.5105 299.184 45.0605C300.791 42.8589 302.398 40.6091 303.796 38.295C306.42 34.1654 307.798 29.3673 307.766 24.4748C307.607 18.1387 305.789 11.9551 302.495 6.54058L305.034 6.37987L305.355 0.305382L296.147 1.10889C295.842 0.877055 295.513 0.677781 295.167 0.514301C294.398 0.171982 293.565 -0.00330559 292.724 4.72045e-05C291.351 -0.00527618 290.02 0.472571 288.964 1.34993C287.92 1.51778 286.971 2.05127 286.285 2.85502C285.599 3.65878 285.221 4.68038 285.219 5.73707C285.213 6.33246 285.328 6.92286 285.557 7.47262L275.111 11.2009C274.806 10.1081 274.597 9.32068 274.533 9.07963C274.227 7.98686 271.994 8.13148 270.788 8.51716C269.583 8.90284 268.056 10.2367 268.265 10.9598C268.474 11.683 271.865 23.8159 272.877 27.4317L272.154 27.6245L273.247 31.5777C272.85 31.8497 272.55 32.2402 272.388 32.6933C272.226 33.1464 272.212 33.639 272.347 34.1007C272.524 34.5186 272.829 34.5186 272.829 34.5186L273.826 34.2454L274.083 35.531L275.111 38.745H147.418C143.642 27.737 141.167 20.5537 141.167 20.5537C141.167 20.5537 141.489 18.6092 138.901 17.9503C136.314 17.2915 138.242 11.1206 138.242 11.1206C145.715 8.53327 149.62 11.1205 153.204 11.458C158.546 11.6531 163.892 11.2107 169.129 10.1403C173.018 9.17605 173.95 7.2155 169.451 3.71223C164.951 0.208954 151.565 3.71223 141.167 3.71223C130.77 3.71223 116.468 -1.10878 109.638 1.76776C102.808 4.64431 105.411 13.7881 110.939 15.7487C114.957 17.1629 126.142 14.6077 132.988 12.7436L133.695 20.2965L141.023 42.5536C139.289 43.2449 137.612 44.0724 136.009 45.0284C131.686 47.5835 124.165 57.1774 120.871 61.5323L119.939 60.9538C119.939 60.9538 117.544 63.991 116.901 65.1159C116.673 65.375 116.533 65.701 116.504 66.0455C116.475 66.39 116.558 66.7346 116.741 67.0283C116.901 67.5104 113.527 72.1386 113.527 72.1386C112.851 71.838 112.159 71.5751 111.454 71.3511C110.811 71.1904 107.613 76.7828 107.131 77.5702C106.906 77.9559 107.838 78.7434 108.979 79.4665C105.347 85.1553 100.189 93.2225 99.7707 94.0421C99.144 95.3277 100.092 96.9186 101.378 95.0063C102.262 93.6725 107.308 85.5571 110.538 80.3986C111.137 80.7387 111.767 81.0238 112.418 81.2503C113.527 81.5717 113.527 80.4629 114.973 78.5345C116.419 76.606 117.207 75.4972 117.046 74.8544C116.885 74.2116 114.973 72.7814 114.973 72.7814C114.973 72.7814 117.384 67.5907 118.01 67.8318C119.28 68.3139 122.317 63.0108 122.317 62.7054C122.317 62.4001 122.028 62.3519 121.642 62.0626C122.767 60.5681 124.422 58.4469 126.254 56.2132C129.693 52.0028 133.887 47.3585 136.475 45.864C138.021 44.9445 139.632 44.1389 141.296 43.4535L141.81 45.0605L70.2821 142.558C70.2821 142.558 69.3019 148.086 71.5677 147.379L71.7606 147.25C72.0079 147.672 72.3593 148.024 72.7814 148.272C73.2034 148.519 73.6819 148.654 74.1711 148.664C78.7029 149.275 165.963 155.205 179.382 155.783C180.139 155.927 180.912 155.97 181.68 155.912C181.709 156.11 181.774 156.3 181.873 156.474C181.973 156.655 182.12 156.805 182.298 156.91C182.476 157.014 182.679 157.069 182.885 157.069C183.856 156.921 184.761 156.491 185.488 155.831C191.097 151.637 260.246 84.8018 269.197 76.7989C272.974 73.4403 277.875 68.9728 283.066 63.7339C290.169 85.8785 299.248 113.792 301.354 118.774C304.841 127.018 310.53 137.753 320.782 145.514C320.624 145.953 320.537 146.414 320.525 146.88C320.525 147.685 320.764 148.471 321.21 149.139C321.657 149.808 322.292 150.329 323.035 150.637C323.778 150.944 324.595 151.025 325.384 150.868C326.173 150.711 326.897 150.324 327.466 149.755C328.034 149.187 328.422 148.462 328.579 147.674C328.735 146.885 328.655 146.068 328.347 145.325C328.039 144.582 327.518 143.947 326.85 143.5C326.181 143.053 325.395 142.815 324.591 142.815L324.655 142.783ZM109.059 77.3774L111.711 73.376L112.53 73.9224L109.975 77.9078L109.059 77.3774ZM112.273 79.2897L111.502 78.8237C112.434 77.3613 113.109 76.3168 113.221 76.0918C113.486 75.6772 113.661 75.212 113.736 74.7259L114.828 75.449L112.273 79.2897ZM287.63 49.5119C288.012 49.4895 288.393 49.4466 288.771 49.3834C290.956 48.9656 294.122 46.089 296.934 41.8625C297.497 40.9948 298.027 40.0627 298.541 39.0825C298.541 41.0912 298.445 42.9875 298.332 44.707C295.536 48.4834 292.563 52.0992 289.526 55.49C288.867 53.417 288.224 51.4082 287.63 49.5119ZM300.582 16.9379C300.582 17.195 300.422 17.4682 300.357 17.7575C299.633 16.1119 298.716 14.5583 297.625 13.1293C299.554 14.0132 301.193 15.1541 300.582 16.9379ZM295.906 12.5347C297.695 14.554 299.075 16.9006 299.972 19.4448C299.168 23.6713 299.023 29.6011 300.582 30.6939C300.308 32.0644 299.932 33.4127 299.457 34.7275C299.168 26.6925 297.85 17.9343 294.54 12.2294C294.958 12.2615 295.424 12.4061 295.906 12.5347ZM303.555 10.5259C305.663 14.8797 306.804 19.6384 306.898 24.4748C306.919 29.1843 305.592 33.8015 303.073 37.7808C301.9 39.6449 300.663 41.4769 299.377 43.2607C299.457 41.6537 299.506 39.9502 299.506 38.1665V37.1219C300.398 35.1386 301.071 33.064 301.514 30.9349C302.961 30.8224 303.845 28.0263 302.511 25.8889C300.904 23.3338 303.153 16.2469 303.796 15.3469C304.439 14.447 299.49 10.5259 297.706 9.12783C298.176 8.42212 298.483 7.62072 298.606 6.78162L301.434 6.60487C302.214 7.87128 302.922 9.18032 303.555 10.5259ZM277.329 19.2198L293.56 13.4186C293.583 13.1083 293.583 12.7967 293.56 12.4865C297.063 18.4806 298.381 28.3155 298.477 36.913C297.791 38.4471 296.985 39.9247 296.067 41.3323C293.383 45.4462 290.121 48.2103 288.53 48.4352C288.109 48.5021 287.685 48.545 287.26 48.5638C284.4 39.6288 282.311 33.1204 281.925 31.867C282.503 31.6741 282.873 31.5295 282.857 31.4652C282.875 31.2436 282.846 31.0208 282.774 30.8107C282.701 30.6006 282.585 30.408 282.434 30.2449C282.283 30.0817 282.1 29.9517 281.896 29.8631C281.692 29.7744 281.472 29.729 281.25 29.7297L279.868 25.4711L279.081 25.6961C278.679 24.2176 278.02 21.791 277.329 19.2198ZM277.329 45.5908C277.586 46.4425 277.875 47.3425 278.181 48.2585C269.519 47.6157 259.009 46.2818 257.98 46.2818C256.55 46.2818 174.77 46.9889 169.74 46.9889C167.99 47.0592 166.257 46.63 164.742 45.7515L164.533 45.5908H277.329ZM76.212 141.802C90.6751 122.888 134.659 61.452 143.256 49.303L175.798 148.102C159.648 147.009 84.7291 141.931 76.212 141.802ZM149.733 45.5908H163.039C163.935 46.4212 164.992 47.0591 166.145 47.4654C167.297 47.8717 168.521 48.0376 169.74 47.9531C174.77 47.9531 256.518 47.23 257.98 47.23C258.848 47.23 269.696 48.612 278.486 49.2548L280.35 55.0722L182.724 145.209C176.971 125.829 160.13 76.0597 149.733 45.5908ZM268.651 76.1239C259.7 84.159 190.47 151.059 185.087 155.124C184.512 155.645 183.807 156.001 183.046 156.153C182.885 156.153 182.901 156.153 182.837 156.056C182.794 155.965 182.767 155.867 182.757 155.767C183.309 155.606 183.801 155.282 184.168 154.838C184.534 154.394 184.759 153.85 184.814 153.276C187.706 152.119 265.164 78.1006 282.52 61.5966C282.632 61.9823 282.761 62.368 282.889 62.7536C277.49 68.0407 272.476 72.6046 268.619 76.0436L268.651 76.1239ZM298.204 46.5872C297.899 49.9458 297.802 53.2241 297.802 56.1167C297.802 60.1985 298.011 63.4929 298.14 65.1481C297.743 66.547 297.612 68.0078 297.754 69.4549C297.754 70.3227 295.729 70.5958 294.395 70.6923C292.788 65.8712 291.326 61.0502 289.896 56.6309C292.724 53.3848 295.52 50.0262 298.172 46.5068L298.204 46.5872Z" fill="#666666"/>
<path d="M180.25 177.173C180.124 177.151 179.996 177.153 179.872 177.181C179.748 177.208 179.63 177.26 179.526 177.333L178.225 177.076C178.157 176.969 178.068 176.876 177.963 176.804C177.858 176.732 177.739 176.683 177.614 176.659C177.489 176.635 177.36 176.638 177.236 176.665C177.112 176.693 176.995 176.745 176.891 176.819L175.605 176.562C175.46 176.343 175.235 176.187 174.979 176.128H174.866C174.742 176.1 174.614 176.098 174.489 176.123C174.364 176.148 174.247 176.199 174.143 176.273L172.793 176C172.725 175.892 172.636 175.799 172.531 175.728C172.426 175.656 172.307 175.606 172.182 175.582C172.059 175.553 171.93 175.552 171.805 175.577C171.681 175.602 171.563 175.653 171.459 175.726L170.126 175.469C169.981 175.249 169.756 175.093 169.499 175.035H169.386C169.26 175.007 169.129 175.005 169.001 175.03C168.874 175.055 168.753 175.106 168.647 175.18L167.313 174.923C167.246 174.811 167.155 174.716 167.047 174.644C166.938 174.572 166.815 174.524 166.687 174.505C166.434 174.462 166.174 174.52 165.963 174.666L164.613 174.409C164.476 174.185 164.257 174.024 164.003 173.959H163.89C163.632 173.913 163.367 173.971 163.151 174.119L161.817 173.862C161.748 173.751 161.656 173.655 161.549 173.581C161.441 173.506 161.319 173.454 161.191 173.428C161.066 173.402 160.936 173.403 160.812 173.431C160.687 173.459 160.57 173.513 160.467 173.589L159.118 173.316C159.05 173.204 158.959 173.109 158.851 173.037C158.743 172.965 158.62 172.917 158.491 172.898C158.231 172.861 157.966 172.924 157.752 173.075L156.466 172.802C156.4 172.692 156.312 172.598 156.206 172.526C156.101 172.454 155.981 172.405 155.855 172.384C155.73 172.362 155.602 172.364 155.478 172.392C155.354 172.42 155.236 172.472 155.132 172.545L153.847 172.287C153.705 172.071 153.487 171.916 153.236 171.854H153.123C152.865 171.808 152.6 171.866 152.384 172.014L151.034 171.757C150.968 171.645 150.88 171.547 150.775 171.47C150.67 171.392 150.551 171.337 150.424 171.307C150.166 171.27 149.903 171.327 149.684 171.468L148.335 171.211C148.27 171.099 148.182 171.002 148.076 170.927C147.971 170.852 147.851 170.801 147.724 170.777H147.611C147.487 170.751 147.359 170.751 147.235 170.776C147.111 170.801 146.993 170.85 146.888 170.922L145.538 170.664C145.472 170.554 145.384 170.458 145.279 170.383C145.173 170.309 145.054 170.257 144.928 170.231C144.67 170.185 144.404 170.243 144.188 170.391L142.839 170.118C142.771 170.01 142.681 169.918 142.576 169.846C142.471 169.774 142.353 169.724 142.228 169.7C141.968 169.663 141.703 169.726 141.489 169.877L140.155 169.604C140.01 169.383 139.786 169.227 139.528 169.17C139.404 169.14 139.276 169.138 139.151 169.163C139.026 169.188 138.908 169.24 138.805 169.315L137.455 169.057C137.389 168.948 137.3 168.855 137.195 168.783C137.089 168.711 136.97 168.662 136.844 168.64C136.586 168.594 136.321 168.652 136.105 168.8L134.836 168.543C134.768 168.436 134.679 168.343 134.574 168.271C134.469 168.199 134.35 168.15 134.225 168.125C134.1 168.102 133.971 168.105 133.847 168.132C133.723 168.16 133.605 168.212 133.502 168.286L132.216 168.029C132.152 167.917 132.064 167.82 131.958 167.745C131.853 167.671 131.732 167.619 131.606 167.595H131.493C131.368 167.573 131.24 167.576 131.115 167.603C130.991 167.631 130.874 167.683 130.77 167.756L129.42 167.483C129.352 167.372 129.261 167.277 129.152 167.205C129.044 167.133 128.922 167.085 128.793 167.065C128.669 167.035 128.541 167.033 128.416 167.058C128.291 167.083 128.173 167.135 128.07 167.209L126.72 166.952C126.654 166.842 126.566 166.746 126.46 166.671C126.355 166.597 126.236 166.544 126.11 166.518H125.997C125.872 166.488 125.742 166.486 125.617 166.514C125.491 166.542 125.374 166.598 125.274 166.679L123.908 166.406C123.845 166.296 123.76 166.2 123.657 166.125C123.555 166.051 123.437 165.998 123.313 165.972C123.188 165.946 123.059 165.947 122.935 165.974C122.81 166.002 122.692 166.056 122.59 166.133L121.24 165.859C121.094 165.644 120.869 165.494 120.614 165.442C120.361 165.399 120.101 165.456 119.89 165.602L117.689 165.072C117.624 164.96 117.536 164.863 117.431 164.789C117.325 164.714 117.205 164.662 117.078 164.638C116.951 164.609 116.818 164.608 116.691 164.635C116.563 164.663 116.443 164.719 116.339 164.799L114.989 164.542C114.927 164.428 114.84 164.329 114.734 164.254C114.628 164.179 114.507 164.129 114.378 164.108C114.253 164.086 114.125 164.088 114.001 164.116C113.877 164.144 113.759 164.195 113.655 164.269L112.305 164.011C112.243 163.897 112.156 163.799 112.05 163.724C111.944 163.649 111.823 163.599 111.695 163.578C111.437 163.534 111.172 163.591 110.956 163.738L109.622 163.481C109.552 163.37 109.461 163.274 109.353 163.2C109.245 163.125 109.123 163.073 108.995 163.047C108.735 163.006 108.469 163.07 108.256 163.224L106.906 162.935C106.758 162.728 106.542 162.58 106.295 162.517C106.037 162.471 105.772 162.529 105.556 162.678L104.206 162.404C104.122 162.221 103.982 162.069 103.805 161.971C103.629 161.872 103.426 161.833 103.226 161.858H103.113C102.988 161.836 102.86 161.839 102.736 161.866C102.612 161.894 102.494 161.946 102.39 162.019L101.04 161.762C100.971 161.65 100.879 161.555 100.772 161.48C100.664 161.405 100.542 161.354 100.414 161.328C100.289 161.302 100.159 161.302 100.035 161.33C99.91 161.358 99.7926 161.412 99.6904 161.488L98.3405 161.215C98.275 161.106 98.1864 161.011 98.081 160.939C97.9756 160.867 97.8558 160.819 97.7298 160.797C97.6022 160.772 97.4707 160.773 97.3435 160.801C97.2164 160.828 97.0962 160.882 96.9906 160.958L95.6407 160.685C95.5747 160.579 95.488 160.487 95.3858 160.416C95.2837 160.344 95.1682 160.293 95.0462 160.267C94.9222 160.239 94.7937 160.237 94.6691 160.262C94.5444 160.287 94.4265 160.338 94.323 160.412L92.9731 160.155C92.9036 160.043 92.8122 159.948 92.7045 159.873C92.5967 159.798 92.4749 159.747 92.3464 159.721H92.2339C92.1089 159.695 91.9797 159.695 91.855 159.723C91.7303 159.751 91.613 159.805 91.5107 159.881L90.2412 159.624C90.1732 159.512 90.0823 159.415 89.9742 159.34C89.8662 159.266 89.7436 159.214 89.6145 159.19C89.3565 159.145 89.091 159.202 88.8753 159.351L87.6057 159.094C87.5364 158.988 87.4469 158.896 87.3421 158.824C87.2373 158.752 87.1193 158.702 86.995 158.676H86.8825C86.7587 158.647 86.63 158.644 86.5052 158.669C86.3804 158.694 86.2624 158.746 86.1594 158.821L84.8095 158.564C84.7393 158.453 84.6477 158.358 84.5401 158.283C84.4324 158.209 84.3109 158.157 84.1828 158.13C84.0577 158.104 83.9286 158.105 83.8039 158.132C83.6792 158.16 83.5619 158.214 83.4597 158.29L82.1097 158.017C82.045 157.907 81.9567 157.812 81.8512 157.74C81.7456 157.668 81.6254 157.62 81.4991 157.599C81.2463 157.556 80.9867 157.614 80.7759 157.76L79.4421 157.487C79.296 157.271 79.0709 157.121 78.8154 157.069C78.6877 157.044 78.5562 157.045 78.429 157.073C78.3019 157.1 78.1818 157.154 78.0762 157.23L76.7423 156.957C76.5967 156.737 76.3724 156.582 76.1156 156.523H76.0192C75.8916 156.496 75.7599 156.497 75.6326 156.525C75.5052 156.552 75.3851 156.606 75.2799 156.683L73.9301 156.426C73.8691 156.311 73.7821 156.212 73.6761 156.137C73.5701 156.062 73.448 156.012 73.3194 155.992C73.1955 155.964 73.067 155.962 72.9424 155.987C72.8177 156.012 72.6998 156.063 72.5963 156.137L71.2624 155.88C71.118 155.659 70.8932 155.504 70.6357 155.446H70.5232C70.3982 155.42 70.2691 155.421 70.1444 155.449C70.0197 155.476 69.9023 155.53 69.8001 155.607L68.4502 155.334C68.4374 155.044 68.31 154.771 68.096 154.575C67.8821 154.379 67.599 154.276 67.3092 154.289C67.0194 154.302 66.7465 154.429 66.5506 154.643C66.3547 154.857 66.2519 155.14 66.2647 155.43C66.2215 155.679 66.276 155.934 66.4167 156.144C66.5574 156.353 66.7735 156.501 67.02 156.555C67.145 156.581 67.2742 156.58 67.3989 156.552C67.5235 156.525 67.6409 156.471 67.7431 156.394L69.093 156.667C69.2366 156.879 69.4547 157.028 69.7037 157.085C69.9614 157.123 70.224 157.066 70.4429 156.924L71.7767 157.182C71.8439 157.293 71.935 157.388 72.0433 157.461C72.1517 157.533 72.2746 157.58 72.4034 157.599C72.5286 157.622 72.657 157.619 72.7811 157.591C72.9052 157.564 73.0226 157.512 73.1266 157.439L74.4764 157.712C74.545 157.819 74.6345 157.911 74.7394 157.983C74.8443 158.055 74.9625 158.105 75.0871 158.13C75.3451 158.175 75.6107 158.118 75.8264 157.969L77.1763 158.242C77.2441 158.35 77.3333 158.442 77.4383 158.514C77.5434 158.586 77.662 158.636 77.7869 158.66C77.9134 158.689 78.0445 158.691 78.1718 158.666C78.299 158.641 78.4198 158.59 78.5261 158.515L79.8599 158.773C79.9294 158.884 80.0209 158.979 80.1286 159.054C80.2364 159.129 80.3582 159.181 80.4867 159.206H80.5992C80.7267 159.235 80.8588 159.235 80.9865 159.208C81.1141 159.18 81.2342 159.125 81.3384 159.046L82.6722 159.319C82.7385 159.428 82.8273 159.521 82.9326 159.594C83.0379 159.666 83.1573 159.714 83.2829 159.737C83.5408 159.782 83.8064 159.725 84.0221 159.576L85.372 159.833C85.4382 159.944 85.5267 160.039 85.6318 160.114C85.7369 160.189 85.8564 160.241 85.9826 160.267C86.1078 160.289 86.2361 160.287 86.3602 160.259C86.4844 160.231 86.6018 160.18 86.7058 160.106L87.9914 160.347C88.056 160.459 88.1441 160.556 88.2494 160.631C88.3548 160.706 88.4751 160.757 88.602 160.781C88.7298 160.805 88.8609 160.803 88.9878 160.775C89.1147 160.748 89.2348 160.695 89.3413 160.621L90.6108 160.862C90.6803 160.973 90.7717 161.069 90.8795 161.143C90.9873 161.218 91.1091 161.27 91.2376 161.296C91.3663 161.319 91.4984 161.315 91.6256 161.284C91.7528 161.254 91.8724 161.198 91.9768 161.119L93.3267 161.392C93.3936 161.502 93.4823 161.597 93.5873 161.672C93.6923 161.746 93.8114 161.799 93.9373 161.826C94.065 161.851 94.1965 161.85 94.3237 161.822C94.4509 161.795 94.5709 161.741 94.6765 161.665L96.0104 161.938C96.0758 162.051 96.1663 162.148 96.275 162.22C96.3837 162.293 96.5076 162.339 96.6371 162.356C96.7623 162.378 96.8906 162.376 97.0147 162.348C97.1388 162.32 97.2563 162.269 97.3603 162.195L98.7101 162.469C98.7794 162.575 98.869 162.667 98.9738 162.739C99.0786 162.81 99.1965 162.861 99.3208 162.887C99.5736 162.93 99.8332 162.872 100.044 162.726L101.394 162.983C101.46 163.094 101.549 163.189 101.654 163.264C101.759 163.339 101.878 163.391 102.004 163.417H102.117C102.244 163.446 102.377 163.447 102.505 163.42C102.632 163.392 102.753 163.336 102.856 163.256L104.19 163.529C104.258 163.642 104.349 163.738 104.457 163.813C104.565 163.888 104.688 163.939 104.817 163.963C104.942 163.989 105.071 163.988 105.196 163.961C105.32 163.933 105.438 163.879 105.54 163.802L106.89 164.076C107.033 164.287 107.251 164.436 107.5 164.494H107.613C107.739 164.522 107.871 164.524 107.998 164.499C108.125 164.474 108.246 164.423 108.352 164.349L109.686 164.606C109.756 164.717 109.847 164.813 109.955 164.887C110.062 164.962 110.184 165.014 110.313 165.04H111.261C111.386 165.069 111.516 165.07 111.641 165.042C111.766 165.014 111.883 164.959 111.984 164.879L113.334 165.152C113.476 165.369 113.694 165.524 113.945 165.586H114.057C114.315 165.632 114.581 165.574 114.796 165.426L116.146 165.683C116.21 165.795 116.298 165.893 116.403 165.968C116.509 166.043 116.629 166.093 116.757 166.117C117.015 166.162 117.28 166.105 117.496 165.956L118.83 166.213C118.897 166.325 118.988 166.42 119.096 166.492C119.205 166.564 119.328 166.612 119.457 166.631C119.707 166.68 119.967 166.628 120.18 166.486L121.53 166.743C121.594 166.854 121.683 166.948 121.788 167.021C121.894 167.093 122.014 167.141 122.14 167.161C122.398 167.207 122.664 167.149 122.879 167L124.229 167.274C124.297 167.381 124.386 167.474 124.491 167.546C124.597 167.618 124.715 167.667 124.84 167.691H124.953C125.079 167.72 125.21 167.722 125.337 167.697C125.465 167.672 125.585 167.621 125.692 167.547L127.026 167.804C127.095 167.915 127.186 168.011 127.294 168.085C127.402 168.16 127.524 168.212 127.652 168.238C127.776 168.266 127.905 168.268 128.029 168.243C128.154 168.218 128.272 168.167 128.376 168.093L129.725 168.35C129.79 168.462 129.878 168.559 129.983 168.634C130.089 168.709 130.209 168.76 130.336 168.784H130.545C130.673 168.81 130.804 168.808 130.931 168.781C131.058 168.753 131.179 168.7 131.284 168.623L132.554 168.881C132.623 168.987 132.713 169.079 132.817 169.15C132.922 169.222 133.04 169.272 133.164 169.298C133.29 169.322 133.418 169.319 133.542 169.292C133.667 169.264 133.784 169.212 133.888 169.138L135.157 169.379C135.223 169.494 135.314 169.594 135.422 169.672C135.53 169.749 135.653 169.803 135.784 169.829H135.896C136.024 169.854 136.155 169.853 136.283 169.825C136.41 169.798 136.53 169.744 136.635 169.668L137.969 169.941C138.109 170.16 138.328 170.315 138.58 170.375C138.709 170.399 138.841 170.396 138.968 170.366C139.096 170.335 139.215 170.278 139.319 170.198L140.669 170.472C140.734 170.583 140.822 170.68 140.927 170.755C141.032 170.83 141.153 170.881 141.28 170.905C141.406 170.929 141.536 170.926 141.66 170.895C141.785 170.865 141.902 170.808 142.003 170.729L143.353 171.002C143.423 171.112 143.515 171.208 143.622 171.282C143.73 171.357 143.851 171.409 143.979 171.436C144.105 171.462 144.234 171.461 144.358 171.433C144.483 171.406 144.6 171.352 144.703 171.275L146.053 171.548C146.118 171.658 146.207 171.752 146.312 171.824C146.417 171.896 146.537 171.945 146.663 171.966C146.921 172.01 147.186 171.952 147.402 171.805L148.736 172.079C148.882 172.294 149.107 172.444 149.363 172.496C149.49 172.526 149.623 172.527 149.751 172.499C149.878 172.471 149.999 172.416 150.102 172.336L151.436 172.609C151.578 172.825 151.796 172.98 152.047 173.043H152.159C152.287 173.074 152.419 173.075 152.547 173.047C152.675 173.019 152.795 172.963 152.898 172.882L154.184 173.139C154.328 173.353 154.545 173.508 154.795 173.573C154.919 173.599 155.047 173.6 155.171 173.575C155.296 173.55 155.413 173.501 155.518 173.428L156.819 173.669C156.886 173.78 156.974 173.876 157.079 173.95C157.184 174.025 157.304 174.077 157.43 174.103H157.864C157.992 174.13 158.123 174.129 158.251 174.101C158.378 174.074 158.498 174.02 158.603 173.943L159.953 174.216C160.02 174.326 160.109 174.421 160.214 174.496C160.319 174.57 160.438 174.623 160.564 174.65C160.817 174.693 161.076 174.635 161.287 174.489L162.621 174.762C162.767 174.978 162.992 175.128 163.247 175.18C163.373 175.206 163.502 175.205 163.626 175.178C163.751 175.15 163.868 175.096 163.971 175.019L165.321 175.276C165.387 175.387 165.475 175.483 165.58 175.557C165.686 175.632 165.805 175.684 165.931 175.71C166.059 175.737 166.191 175.736 166.318 175.708C166.445 175.681 166.565 175.627 166.67 175.55L168.02 175.823C168.085 175.933 168.173 176.028 168.279 176.1C168.384 176.172 168.505 176.22 168.631 176.241H169.113C169.24 176.269 169.371 176.271 169.498 176.246C169.625 176.222 169.746 176.17 169.852 176.096L171.186 176.369C171.33 176.581 171.548 176.73 171.797 176.787C171.922 176.818 172.052 176.819 172.177 176.791C172.303 176.763 172.42 176.707 172.52 176.626L173.87 176.9C173.935 177.01 174.023 177.105 174.128 177.177C174.234 177.249 174.354 177.297 174.481 177.317C174.608 177.348 174.741 177.35 174.869 177.322C174.997 177.294 175.117 177.238 175.22 177.157L176.505 177.414C176.652 177.632 176.876 177.787 177.132 177.848C177.256 177.873 177.384 177.873 177.508 177.849C177.632 177.824 177.75 177.774 177.855 177.703L179.157 177.944C179.222 178.056 179.31 178.153 179.415 178.228C179.52 178.303 179.641 178.354 179.768 178.378C179.889 178.404 180.014 178.405 180.136 178.382C180.258 178.358 180.374 178.311 180.477 178.242C180.581 178.173 180.669 178.084 180.738 177.98C180.806 177.877 180.853 177.761 180.876 177.639C180.811 177.521 180.721 177.419 180.613 177.338C180.505 177.258 180.381 177.202 180.25 177.173Z" fill="#666666"/>
<path d="M184.138 128.738C184.011 128.75 183.887 128.787 183.773 128.848C183.66 128.909 183.56 128.991 183.48 129.091L182.178 129.22C182.081 129.137 181.969 129.074 181.847 129.035C181.726 128.996 181.598 128.983 181.471 128.995C181.216 129.029 180.981 129.154 180.812 129.348L179.51 129.493C179.31 129.321 179.05 129.235 178.787 129.252H178.675C178.546 129.267 178.421 129.307 178.308 129.371C178.195 129.434 178.096 129.519 178.016 129.621L176.666 129.734C176.46 129.574 176.203 129.494 175.943 129.509C175.816 129.522 175.693 129.562 175.582 129.626C175.472 129.689 175.375 129.775 175.3 129.879L173.934 130.007C173.734 129.836 173.474 129.749 173.211 129.766C173.084 129.773 172.961 129.809 172.849 129.87C172.738 129.931 172.642 130.016 172.568 130.12L171.186 130.248C171.089 130.165 170.977 130.102 170.855 130.064C170.734 130.025 170.606 130.011 170.479 130.023C170.349 130.034 170.223 130.073 170.11 130.137C169.996 130.201 169.897 130.288 169.82 130.393L168.454 130.521C168.259 130.351 168.005 130.264 167.747 130.28H167.618C167.363 130.322 167.133 130.46 166.976 130.666L165.61 130.795C165.515 130.707 165.404 130.64 165.282 130.599C165.16 130.557 165.031 130.542 164.903 130.553C164.776 130.567 164.653 130.607 164.542 130.67C164.431 130.734 164.335 130.82 164.26 130.923L162.878 131.052C162.783 130.965 162.671 130.9 162.549 130.861C162.427 130.822 162.298 130.811 162.171 130.827H161.994C161.868 130.837 161.746 130.874 161.635 130.935C161.524 130.996 161.427 131.079 161.351 131.18L160.033 131.309C159.938 131.223 159.826 131.159 159.704 131.12C159.582 131.081 159.453 131.069 159.326 131.084C159.199 131.097 159.076 131.137 158.966 131.201C158.855 131.264 158.759 131.35 158.684 131.453L157.366 131.582C157.272 131.493 157.16 131.426 157.038 131.385C156.916 131.343 156.787 131.328 156.659 131.341H156.257C156.126 131.349 155.999 131.386 155.885 131.45C155.771 131.514 155.673 131.603 155.598 131.71L154.232 131.839C154.137 131.753 154.025 131.687 153.903 131.646C153.782 131.604 153.653 131.588 153.525 131.598C153.396 131.613 153.272 131.653 153.159 131.717C153.045 131.78 152.946 131.865 152.866 131.968L151.5 132.096C151.301 131.923 151.041 131.836 150.777 131.855C150.523 131.889 150.292 132.022 150.134 132.225L148.768 132.353C148.565 132.186 148.308 132.1 148.045 132.112C147.914 132.125 147.787 132.167 147.674 132.233C147.56 132.3 147.462 132.39 147.386 132.498L146.004 132.626C145.913 132.534 145.802 132.464 145.679 132.423C145.556 132.381 145.426 132.368 145.297 132.385H145.008C144.755 132.414 144.524 132.541 144.365 132.739L142.983 132.884C142.888 132.798 142.776 132.732 142.654 132.691C142.533 132.649 142.404 132.633 142.276 132.643C142.147 132.658 142.023 132.698 141.91 132.761C141.796 132.825 141.697 132.91 141.617 133.012L140.251 133.141C140.054 132.975 139.802 132.889 139.544 132.9C139.415 132.915 139.291 132.955 139.178 133.018C139.064 133.082 138.965 133.167 138.885 133.269L137.6 133.398C137.504 133.312 137.392 133.246 137.271 133.205C137.149 133.163 137.021 133.147 136.893 133.157C136.632 133.196 136.396 133.334 136.234 133.542L134.932 133.655C134.837 133.569 134.725 133.503 134.603 133.462C134.482 133.42 134.353 133.404 134.225 133.414C134.096 133.422 133.971 133.458 133.857 133.519C133.743 133.58 133.644 133.665 133.566 133.767L132.184 133.896C132.09 133.809 131.978 133.743 131.856 133.704C131.733 133.665 131.604 133.654 131.477 133.671C131.349 133.683 131.225 133.721 131.112 133.781C130.999 133.842 130.899 133.925 130.818 134.025L129.452 134.169C129.357 134.083 129.245 134.018 129.123 133.976C129.002 133.935 128.873 133.918 128.745 133.928H128.632C128.376 133.959 128.141 134.085 127.974 134.282L126.608 134.426C126.514 134.338 126.402 134.271 126.28 134.229C126.158 134.187 126.029 134.172 125.901 134.185C125.771 134.198 125.646 134.238 125.533 134.302C125.419 134.365 125.32 134.451 125.242 134.555L123.876 134.683C123.777 134.599 123.661 134.536 123.537 134.497C123.413 134.458 123.282 134.445 123.153 134.458H123.056C122.928 134.471 122.804 134.508 122.691 134.569C122.578 134.629 122.478 134.712 122.397 134.812L121.031 134.941C120.932 134.857 120.817 134.794 120.692 134.755C120.568 134.717 120.438 134.703 120.308 134.716C120.182 134.724 120.059 134.76 119.948 134.821C119.836 134.882 119.74 134.967 119.665 135.069L118.299 135.214C118.202 135.126 118.088 135.059 117.963 135.017C117.839 134.976 117.707 134.961 117.576 134.973H117.464C117.336 134.985 117.212 135.022 117.099 135.083C116.986 135.144 116.886 135.226 116.805 135.326L115.439 135.471C115.346 135.381 115.234 135.315 115.112 135.276C114.989 135.237 114.859 135.226 114.732 135.246H114.619C114.492 135.258 114.367 135.295 114.254 135.356C114.141 135.417 114.041 135.5 113.96 135.599L112.595 135.744C112.499 135.658 112.387 135.592 112.266 135.551C112.144 135.51 112.016 135.493 111.887 135.503H111.775C111.645 135.513 111.519 135.552 111.405 135.615C111.291 135.679 111.193 135.767 111.116 135.873L109.75 136.001C109.656 135.913 109.545 135.845 109.423 135.804C109.301 135.762 109.171 135.747 109.043 135.76C108.914 135.775 108.79 135.815 108.677 135.879C108.564 135.942 108.464 136.028 108.384 136.13L107.018 136.258C106.924 136.172 106.812 136.107 106.689 136.068C106.567 136.029 106.438 136.017 106.311 136.033H106.199C106.07 136.042 105.944 136.077 105.831 136.138C105.717 136.199 105.618 136.284 105.54 136.387L104.174 136.515C103.972 136.348 103.712 136.267 103.451 136.29C103.325 136.303 103.204 136.341 103.093 136.401C102.983 136.462 102.886 136.545 102.808 136.644L101.442 136.789C101.242 136.617 100.982 136.531 100.719 136.548H100.606C100.476 136.559 100.351 136.598 100.237 136.661C100.123 136.725 100.025 136.812 99.9474 136.917L98.5814 137.046C98.4877 136.957 98.3761 136.89 98.2541 136.848C98.1321 136.807 98.0026 136.792 97.8744 136.805C97.7456 136.82 97.621 136.86 97.5079 136.923C97.3948 136.987 97.2954 137.072 97.2155 137.174L95.8495 137.303C95.755 137.216 95.6429 137.151 95.5208 137.113C95.3987 137.074 95.2696 137.062 95.1425 137.078H95.03C94.901 137.085 94.7751 137.12 94.6613 137.182C94.5475 137.243 94.4484 137.328 94.3711 137.431L93.0694 137.56C92.8748 137.389 92.6206 137.303 92.3623 137.319H91.9767C91.8507 137.329 91.7283 137.366 91.6176 137.427C91.5068 137.488 91.4102 137.572 91.3339 137.673L90.0322 137.801C89.9383 137.714 89.8262 137.648 89.7039 137.609C89.5816 137.57 89.4523 137.559 89.3251 137.576H89.2126C89.0838 137.591 88.9592 137.631 88.8461 137.695C88.733 137.758 88.6336 137.844 88.5537 137.946L87.1878 138.074C87.0932 137.988 86.9811 137.923 86.859 137.884C86.7369 137.845 86.6078 137.833 86.4807 137.849C86.3528 137.861 86.2287 137.899 86.1156 137.96C86.0025 138.02 85.9026 138.103 85.8218 138.203L84.4559 138.347C84.3621 138.259 84.2505 138.192 84.1285 138.15C84.0065 138.108 83.877 138.094 83.7488 138.106H83.6363C83.5057 138.114 83.3786 138.152 83.2645 138.216C83.1504 138.28 83.0523 138.369 82.9774 138.476L81.6114 138.605C81.516 138.519 81.4042 138.453 81.2827 138.411C81.1611 138.37 81.0324 138.354 80.9044 138.364C80.7751 138.377 80.6499 138.416 80.5365 138.48C80.4232 138.543 80.3242 138.63 80.2455 138.733L78.8635 138.862C78.7696 138.774 78.6574 138.709 78.5352 138.67C78.4129 138.631 78.2835 138.62 78.1564 138.637H78.0439C77.9174 138.652 77.7953 138.693 77.6849 138.756C77.5745 138.82 77.4779 138.905 77.4011 139.006L76.0191 139.135C75.9248 139.053 75.8151 138.991 75.6964 138.952C75.5777 138.914 75.4525 138.899 75.3281 138.91C75.2003 138.92 75.0763 138.959 74.9652 139.023C74.854 139.086 74.7584 139.174 74.6852 139.28L73.3032 139.408C73.2078 139.322 73.096 139.256 72.9744 139.215C72.8529 139.174 72.7242 139.157 72.5962 139.167H72.4837C72.3528 139.174 72.2253 139.211 72.111 139.275C71.9967 139.339 71.8988 139.428 71.8248 139.537L70.4588 139.665C70.3444 139.55 70.2026 139.467 70.0468 139.423C69.891 139.378 69.7265 139.375 69.5688 139.412C69.4112 139.449 69.2658 139.526 69.1464 139.636C69.0271 139.745 68.9378 139.884 68.887 140.038C68.8363 140.191 68.8258 140.356 68.8565 140.515C68.8873 140.674 68.9582 140.822 69.0627 140.946C69.1671 141.07 69.3015 141.165 69.4531 141.222C69.6047 141.279 69.7683 141.296 69.9285 141.272C70.0573 141.257 70.1819 141.217 70.295 141.153C70.4081 141.09 70.5075 141.005 70.5874 140.903L71.9534 140.774C72.0479 140.861 72.16 140.925 72.2821 140.964C72.4042 141.003 72.5333 141.015 72.6604 140.999H72.6926C72.8213 140.991 72.9468 140.955 73.0605 140.894C73.1742 140.833 73.2734 140.748 73.3514 140.645L74.7174 140.517C74.8165 140.601 74.9317 140.665 75.056 140.703C75.1802 140.742 75.3111 140.755 75.4405 140.742C75.5675 140.728 75.6903 140.689 75.801 140.625C75.9117 140.561 76.0079 140.475 76.0833 140.372L77.4654 140.244C77.5583 140.328 77.6675 140.393 77.7862 140.435C77.905 140.476 78.0309 140.493 78.1564 140.485H78.285C78.4156 140.477 78.5426 140.439 78.6567 140.375C78.7708 140.311 78.869 140.222 78.9438 140.115L80.2937 139.987C80.391 140.075 80.5055 140.141 80.63 140.183C80.7545 140.224 80.8862 140.24 81.0169 140.228C81.1457 140.213 81.2702 140.172 81.3833 140.109C81.4964 140.045 81.5958 139.96 81.6757 139.858L83.0417 139.729C83.1384 139.813 83.2508 139.875 83.3723 139.914C83.4938 139.953 83.6219 139.966 83.7488 139.954H83.8613C83.99 139.946 84.1155 139.91 84.2291 139.849C84.3428 139.788 84.4421 139.704 84.5201 139.601L85.8861 139.472C85.9828 139.555 86.0952 139.618 86.2167 139.657C86.3382 139.696 86.4662 139.709 86.5932 139.697C86.723 139.686 86.8489 139.647 86.9625 139.584C87.0761 139.52 87.1748 139.433 87.252 139.328L88.618 139.199C88.7158 139.286 88.8304 139.353 88.9547 139.394C89.0791 139.436 89.2105 139.451 89.3411 139.44H89.4536C89.5806 139.427 89.7034 139.387 89.8141 139.323C89.9248 139.26 90.021 139.174 90.0964 139.071L91.3982 138.942C91.4899 139.033 91.6013 139.102 91.7238 139.144C91.8464 139.186 91.9768 139.199 92.1052 139.183H92.1856C92.312 139.175 92.4351 139.139 92.5462 139.078C92.6572 139.016 92.7535 138.932 92.8284 138.83L94.1139 138.701C94.3144 138.872 94.5739 138.959 94.8371 138.942H94.9496C95.0794 138.931 95.2053 138.892 95.3189 138.828C95.4325 138.765 95.5313 138.677 95.6085 138.572L96.9584 138.46C97.1642 138.62 97.4212 138.7 97.6815 138.685C97.8103 138.67 97.9349 138.63 98.048 138.566C98.1611 138.503 98.2605 138.417 98.3404 138.315L99.7063 138.187C99.8009 138.273 99.913 138.338 100.035 138.377C100.157 138.416 100.286 138.428 100.413 138.412H100.542C100.668 138.401 100.79 138.364 100.901 138.303C101.012 138.243 101.109 138.159 101.185 138.058L102.551 137.93C102.648 138.012 102.76 138.074 102.882 138.113C103.003 138.151 103.131 138.166 103.258 138.155C103.384 138.139 103.506 138.099 103.617 138.035C103.727 137.972 103.824 137.887 103.901 137.785L105.283 137.656C105.378 137.742 105.49 137.808 105.611 137.849C105.733 137.891 105.862 137.907 105.99 137.897H106.102C106.361 137.864 106.597 137.731 106.761 137.528L108.111 137.399C108.311 137.571 108.571 137.657 108.834 137.64C109.092 137.604 109.327 137.472 109.493 137.271L110.859 137.142C110.956 137.225 111.068 137.288 111.19 137.327C111.311 137.365 111.439 137.379 111.566 137.367H111.679C111.807 137.359 111.933 137.323 112.046 137.262C112.16 137.201 112.259 137.116 112.337 137.014L113.703 136.885C113.902 137.047 114.155 137.127 114.41 137.11H114.539C114.793 137.076 115.024 136.943 115.182 136.74L116.548 136.596C116.644 136.686 116.758 136.753 116.883 136.795C117.008 136.837 117.14 136.851 117.271 136.837H117.383C117.51 136.822 117.632 136.781 117.742 136.717C117.853 136.654 117.949 136.569 118.026 136.467L119.392 136.323C119.486 136.416 119.6 136.487 119.725 136.529C119.851 136.57 119.984 136.582 120.115 136.564C120.244 136.549 120.369 136.508 120.482 136.445C120.595 136.381 120.694 136.296 120.774 136.194L122.124 136.065C122.325 136.237 122.584 136.323 122.847 136.307C122.977 136.295 123.103 136.257 123.217 136.193C123.33 136.129 123.429 136.042 123.506 135.937L124.856 135.808C125.056 135.98 125.316 136.066 125.579 136.049C125.708 136.034 125.833 135.994 125.946 135.931C126.059 135.867 126.158 135.782 126.238 135.68L127.604 135.535C127.698 135.624 127.809 135.691 127.931 135.733C128.053 135.774 128.183 135.789 128.311 135.776H128.424C128.551 135.764 128.675 135.727 128.789 135.666C128.902 135.605 129.002 135.522 129.082 135.423L130.448 135.294C130.543 135.381 130.655 135.446 130.777 135.484C130.899 135.523 131.028 135.535 131.155 135.519C131.41 135.485 131.641 135.352 131.798 135.149L133.164 135.021C133.364 135.194 133.624 135.281 133.887 135.262C134.014 135.247 134.136 135.206 134.246 135.143C134.357 135.079 134.453 134.994 134.53 134.892L135.832 134.78C135.927 134.865 136.04 134.928 136.162 134.967C136.283 135.006 136.412 135.019 136.539 135.005C136.666 134.991 136.789 134.952 136.899 134.888C137.01 134.824 137.106 134.738 137.182 134.635L138.483 134.523C138.682 134.685 138.935 134.765 139.191 134.748H139.303C139.433 134.737 139.559 134.698 139.672 134.634C139.786 134.57 139.885 134.483 139.962 134.378L141.328 134.25C141.423 134.336 141.535 134.401 141.657 134.443C141.778 134.484 141.907 134.5 142.035 134.491C142.164 134.477 142.289 134.438 142.403 134.374C142.516 134.311 142.615 134.224 142.694 134.121L144.06 133.992C144.155 134.078 144.267 134.142 144.389 134.181C144.511 134.22 144.64 134.232 144.767 134.217H144.895C145.021 134.205 145.142 134.167 145.253 134.107C145.363 134.046 145.461 133.963 145.538 133.864L146.904 133.719C146.997 133.81 147.108 133.878 147.23 133.92C147.353 133.961 147.483 133.975 147.611 133.96C147.87 133.927 148.106 133.794 148.27 133.591L149.62 133.462C149.82 133.634 150.08 133.72 150.343 133.703H150.456C150.584 133.688 150.709 133.648 150.822 133.584C150.935 133.521 151.035 133.436 151.114 133.334L152.48 133.205C152.576 133.291 152.688 133.357 152.809 133.398C152.931 133.44 153.06 133.456 153.188 133.446C153.446 133.409 153.681 133.278 153.846 133.076L155.212 132.948C155.307 133.034 155.419 133.099 155.541 133.138C155.663 133.177 155.792 133.189 155.919 133.173H156.048C156.173 133.16 156.295 133.123 156.406 133.062C156.516 133.001 156.613 132.919 156.691 132.819L158.009 132.691C158.104 132.776 158.216 132.841 158.338 132.88C158.46 132.918 158.589 132.931 158.716 132.916C158.973 132.888 159.209 132.761 159.375 132.562L160.692 132.418C160.788 132.504 160.9 132.569 161.021 132.611C161.143 132.652 161.271 132.668 161.399 132.659H161.56C161.691 132.651 161.818 132.613 161.932 132.549C162.046 132.485 162.144 132.396 162.219 132.289L163.585 132.16C163.682 132.248 163.797 132.315 163.921 132.357C164.046 132.398 164.177 132.414 164.308 132.402C164.436 132.389 164.56 132.352 164.673 132.291C164.786 132.23 164.886 132.148 164.967 132.048L166.317 131.919C166.519 132.087 166.779 132.168 167.04 132.144H167.152C167.281 132.136 167.407 132.1 167.52 132.039C167.634 131.978 167.733 131.894 167.811 131.791L169.161 131.662C169.363 131.83 169.623 131.91 169.884 131.887C170.141 131.859 170.378 131.733 170.543 131.534L171.909 131.389C172.007 131.476 172.122 131.541 172.246 131.58C172.371 131.619 172.503 131.63 172.632 131.614H172.729C172.928 131.729 173.165 131.764 173.389 131.71C173.613 131.656 173.808 131.518 173.934 131.325L175.3 131.196C175.495 131.367 175.749 131.453 176.007 131.437C176.136 131.424 176.262 131.385 176.375 131.321C176.488 131.257 176.587 131.171 176.666 131.068L178.032 130.923C178.123 131.015 178.234 131.085 178.357 131.127C178.48 131.169 178.61 131.182 178.739 131.164H178.851C178.983 131.157 179.111 131.122 179.227 131.061C179.344 131 179.446 130.914 179.526 130.811L180.828 130.682C181.024 130.851 181.277 130.937 181.535 130.923C181.662 130.915 181.785 130.879 181.896 130.818C182.007 130.756 182.103 130.672 182.178 130.57L183.496 130.441C183.592 130.524 183.705 130.587 183.826 130.625C183.948 130.664 184.076 130.678 184.203 130.666C184.327 130.656 184.448 130.621 184.558 130.564C184.668 130.506 184.766 130.427 184.846 130.331C184.925 130.236 184.984 130.125 185.02 130.006C185.056 129.886 185.068 129.761 185.054 129.637C185.042 129.4 184.942 129.175 184.772 129.009C184.602 128.842 184.376 128.745 184.138 128.738Z" fill="#666666"/>
</svg>
