<svg width="109" height="96" viewBox="0 0 109 96" fill="none" xmlns="http://www.w3.org/2000/svg">
<g clip-path="url(#clip0_10_443)">
<path d="M18.48 43.86C18.5901 42.6378 18.2328 41.4193 17.48 40.45C17.2697 40.161 17.0245 39.899 16.75 39.67C16.4355 39.3879 16.0776 39.1583 15.69 38.9901C15.2527 38.8021 14.7854 38.6938 14.31 38.67C13.7503 38.6384 13.1898 38.7166 12.66 38.9001C12.7569 38.5999 12.8009 38.2852 12.79 37.97C12.7841 37.6757 12.7404 37.3833 12.66 37.1C12.5933 36.838 12.4924 36.5858 12.36 36.35C12.2555 36.156 12.1242 35.9775 11.97 35.82C11.4833 35.2894 10.8905 34.8669 10.23 34.5801C9.63221 34.3322 8.98607 34.2228 8.34 34.26C7.67953 34.2975 7.03338 34.4676 6.44 34.76C5.77712 35.0848 5.17502 35.5212 4.66 36.0501L0 40.7101L11.61 52.32L16.35 47.5801C17.4602 46.6166 18.2111 45.3052 18.48 43.86ZM7.48001 42.3001L5.41 40.23L7.12001 38.5301C7.24802 38.3754 7.4076 38.2498 7.58806 38.1617C7.76852 38.0737 7.96569 38.0252 8.1664 38.0195C8.36711 38.0139 8.56673 38.0511 8.75188 38.1288C8.93703 38.2065 9.10345 38.3228 9.24001 38.47C9.49952 38.7404 9.65227 39.0957 9.67 39.47C9.67988 39.6833 9.64087 39.896 9.55594 40.0918C9.47101 40.2877 9.34243 40.4615 9.18001 40.6L7.48001 42.3001ZM13.68 45.0901L11.97 46.79L9.59 44.41L11.3 42.7101C11.4671 42.5156 11.6742 42.3595 11.9072 42.2525C12.1402 42.1455 12.3936 42.0901 12.65 42.0901C13.0837 42.101 13.4962 42.2803 13.8 42.5901C14.1003 42.8953 14.2752 43.3021 14.29 43.73C14.292 43.9873 14.2386 44.2419 14.1333 44.4766C14.028 44.7113 13.8734 44.9205 13.68 45.0901" fill="#141414"/>
<path d="M29.92 34.0499L27.15 31.2699L22.04 36.3899L20.3 34.6499L25 29.9499L22.46 27.4099L17.76 32.1099L15.95 30.3099L21.07 25.1899L18.32 22.4399L10.23 30.5199L21.84 42.1299L29.92 34.0499Z" fill="#141414"/>
<path d="M33.62 30.3499L32.01 27.2999L35.11 24.1999L38.19 25.7799L41.34 22.6299L25.58 15.1699L22.91 17.8599L30.47 33.5199L33.62 30.3499ZM27.52 19.7899L27.6 19.7099L31.8 22.2999L30.06 24.0399L27.52 19.7899Z" fill="#141414"/>
<path d="M45.08 18.8599L41.39 15.1699L41.91 14.6499L48.29 15.6499L51.95 11.9899L44.8 11.1699C45.2857 10.2749 45.4347 9.2354 45.22 8.23993C44.8877 7.0237 44.2104 5.92965 43.27 5.08992C42.6673 4.4918 41.9495 4.02232 41.16 3.70993C40.4879 3.45448 39.7648 3.36194 39.05 3.43993C38.3446 3.53063 37.6645 3.76184 37.05 4.11992C36.3561 4.51771 35.7201 5.00898 35.16 5.57993L30.52 10.2199L42.16 21.8599L45.08 18.8599ZM41.16 9.95993C41.0673 10.34 40.8698 10.6865 40.59 10.9599L38.86 12.6799L36.21 10.0199L37.93 8.29993C38.1959 8.01058 38.5455 7.81133 38.93 7.72992C39.2568 7.63708 39.6031 7.63708 39.93 7.72992C40.2297 7.82049 40.5015 7.98566 40.72 8.20993C40.9443 8.4323 41.1093 8.70733 41.2 9.00992C41.2984 9.33598 41.2984 9.68385 41.2 10.0099" fill="#141414"/>
<path d="M66.63 20.59C67.4354 20.7684 68.274 20.726 69.0573 20.4673C69.8405 20.2085 70.5394 19.743 71.08 19.12C71.3521 18.7888 71.5651 18.4133 71.71 18.01C71.8758 17.5349 71.9504 17.0327 71.93 16.53C71.9032 15.8962 71.7609 15.2726 71.51 14.69C71.8292 14.8202 72.1664 14.9011 72.51 14.93C72.8246 14.9512 73.1407 14.931 73.45 14.87C73.7251 14.8243 73.9915 14.7366 74.24 14.61C74.4438 14.5202 74.63 14.3949 74.79 14.24C75.3276 13.75 75.7363 13.1353 75.98 12.45C76.2017 11.7905 76.26 11.087 76.15 10.4C76.0236 9.64915 75.7699 8.92542 75.4 8.25996C74.9734 7.49338 74.4378 6.79277 73.81 6.17998L68.34 0.719971L56.74 12.32L62.3 17.88C63.4368 19.1805 64.9273 20.1221 66.59 20.59H66.63ZM69.28 6.58997L71.28 8.58997C71.4739 8.75434 71.633 8.95576 71.7481 9.18242C71.8631 9.40908 71.9318 9.65644 71.95 9.90997C71.958 10.0946 71.9275 10.2789 71.8604 10.4511C71.7932 10.6232 71.6909 10.7795 71.56 10.91C71.4204 11.042 71.2552 11.1438 71.0745 11.2092C70.8939 11.2746 70.7017 11.3021 70.51 11.29C70.0079 11.2531 69.5407 11.0195 69.21 10.64L67.21 8.58997L69.28 6.58997ZM65.16 10.79L67.16 12.79C67.6146 13.187 67.9036 13.7401 67.97 14.34C67.9891 14.5622 67.9607 14.7859 67.8865 14.9963C67.8124 15.2067 67.6942 15.3988 67.54 15.56C67.3803 15.7127 67.1895 15.8293 66.9807 15.9017C66.772 15.9742 66.55 16.0009 66.33 15.98C65.7275 15.9225 65.1712 15.6318 64.78 15.17L62.78 13.17L65.16 10.79Z" fill="#141414"/>
<path d="M80.6854 13.0209L69.0748 24.6316L72.4406 27.9974L84.0513 16.3867L80.6854 13.0209Z" fill="#141414"/>
<path d="M78.19 33.7501L82.21 29.7301L82.46 29.7201L81.87 37.4301L86.34 41.8901L86.85 30.4001L97.96 30.3001L93.58 25.9201L85.5 26.4301L89.8 22.1401L86.47 18.8101L74.86 30.4201L78.19 33.7501Z" fill="#141414"/>
<path d="M105.8 43.64L108.55 40.89L99.18 31.52L87.57 43.13L96.94 52.5L99.71 49.73L93.57 43.59L95.31 41.85L100.96 47.5L103.5 44.95L97.85 39.31L99.66 37.5L105.8 43.64Z" fill="#141414"/>
<path d="M33.77 79.21L29.06 74.5C28.6067 74.9706 28.3019 75.5642 28.1836 76.2068C28.0652 76.8494 28.1385 77.5126 28.3944 78.1139C28.6502 78.7151 29.0773 79.2278 29.6224 79.5881C30.1675 79.9483 30.8066 80.1403 31.46 80.14C32.3223 80.1457 33.1522 79.8116 33.77 79.21" fill="#141414"/>
<path d="M86.77 66.9499C88.0662 68.1984 89.1005 69.6928 89.8124 71.3458C90.5243 72.9987 90.8995 74.777 90.9161 76.5767C90.9328 78.3763 90.5904 80.1613 89.9091 81.8271C89.2279 83.4929 88.2214 85.0061 86.9485 86.2784C85.6755 87.5507 84.1617 88.5564 82.4955 89.2368C80.8294 89.9172 79.0443 90.2586 77.2447 90.241C75.445 90.2235 73.6669 89.8473 72.0143 89.1346C70.3618 88.4218 68.8679 87.3867 67.62 86.0899L64.62 89.1499C66.2607 90.8923 68.2348 92.2872 70.4251 93.2517C72.6154 94.2163 74.9773 94.7307 77.3703 94.7646C79.7634 94.7984 82.1388 94.351 84.3556 93.4488C86.5723 92.5466 88.5851 91.2081 90.2744 89.5128C91.9636 87.8174 93.295 85.7999 94.1893 83.58C95.0835 81.36 95.5225 78.983 95.4801 76.5901C95.4377 74.1972 94.9149 71.8372 93.9425 69.6503C92.9702 67.4635 91.5683 65.4943 89.82 63.8599L86.77 66.9499Z" fill="#141414"/>
<path d="M79.81 59.28C78.8904 59.1353 77.9609 59.0617 77.03 59.06C74.1893 59.0656 71.3913 59.7514 68.87 61.06L68.75 60.77C68.2202 59.7492 67.394 58.9126 66.38 58.37C66.09 58.2 65.68 58.02 65.6 57.78C65.33 57 65.18 56.19 64.96 55.28C65.3 55.46 65.5 55.65 65.71 55.66C66.0858 55.6964 66.465 55.6486 66.82 55.52C67.03 55.43 67.23 55.07 67.15 54.91C66.7711 54.1059 66.189 53.4145 65.4612 52.9042C64.7334 52.3939 63.8851 52.0822 63 52C61.6202 51.7592 60.2547 51.442 58.91 51.05C57.75 50.73 57.23 50.13 57.23 49.05C57.1723 47.6964 56.9575 46.354 56.59 45.05C56.48 44.59 56.64 44.38 57.01 44.1C57.1718 43.9652 57.3719 43.8849 57.582 43.8705C57.7921 43.8561 58.0014 43.9085 58.18 44.02C58.64 44.19 59.11 44.34 59.56 44.53C60.5845 44.9863 61.7327 45.0849 62.82 44.81C63.3179 44.6667 63.8391 44.6229 64.3539 44.6812C64.8686 44.7396 65.3669 44.8989 65.82 45.15C66.2093 45.3088 66.6323 45.3672 67.05 45.32C67.3612 45.232 67.6529 45.0862 67.91 44.89C67.72 44.73 67.54 44.55 67.34 44.39C67.2248 44.312 67.1046 44.2419 66.98 44.18C67.2309 44.1786 67.4804 44.2157 67.72 44.29C67.9675 44.3715 68.2322 44.3857 68.4869 44.3312C68.7417 44.2768 68.9775 44.1555 69.17 43.98C69.6 43.57 70.06 43.19 70.51 42.79C70.96 42.39 71 42.1 70.29 41.72C69.8628 41.4877 69.4692 41.1984 69.12 40.86C68.7497 40.5213 68.4147 40.1461 68.12 39.74C67.9651 39.4786 67.8759 39.1835 67.86 38.88C67.81 38.48 68.01 38.01 67.81 37.67C67.3509 36.808 66.7529 36.0275 66.04 35.36C65.29 34.74 64.58 34.21 64.73 33.29C64.73 33.17 64.73 33 64.63 32.95C64.2562 32.664 63.8323 32.4503 63.38 32.32C63.1541 32.2875 62.9243 32.3431 62.7382 32.4753C62.5521 32.6074 62.4238 32.806 62.38 33.03C62.32 33.21 62.28 33.39 62.22 33.57C62.0349 33.267 61.9252 32.9241 61.9 32.57C61.9 32.17 61.58 31.95 61.1 31.9C60.62 31.85 60.04 31.98 59.97 32.41C59.83 33.19 59.14 33.19 58.41 33.21C55.74 33.28 53.06 33.33 50.41 33.44C48.864 33.4911 47.3524 33.9093 46 34.66C43.0413 36.4164 40.2818 38.4885 37.77 40.84C35.7971 42.5415 34.1824 44.6184 33.02 46.95C30.8375 50.9721 29.6897 55.4739 29.68 60.05L52.91 83.28C53.163 83.2749 53.4146 83.2414 53.66 83.18C54.17 83.08 54.13 82.79 54.1 82.48C53.9895 81.7126 53.7153 80.9779 53.2961 80.3258C52.8768 79.6736 52.3223 79.1191 51.67 78.7C51.2 78.33 51.13 78.08 51.57 77.7C52.0035 77.2568 52.4077 76.7858 52.78 76.29C53.5008 76.6704 54.1956 77.098 54.86 77.57C55.0714 77.7533 55.3322 77.8701 55.6098 77.9057C55.8873 77.9413 56.1692 77.8941 56.42 77.77C57.05 77.53 56.94 77.13 56.8 76.77C56.5811 76.246 56.2608 75.7703 55.8575 75.3705C55.4543 74.9706 54.9759 74.6544 54.45 74.44L64.35 63.86L64.53 64.17C62.8289 65.8311 61.4775 67.8158 60.5552 70.0072C59.633 72.1986 59.1586 74.5524 59.16 76.93C59.1617 77.861 59.2352 78.7904 59.38 79.71L63.56 75.53C63.8408 72.795 64.9543 70.212 66.75 68.13L68.24 70.77L69.98 69.04C69.65 68.35 69.32 67.66 68.98 66.98C68.86 66.76 68.78 66.52 68.68 66.3C70.6935 64.7031 73.123 63.7174 75.68 63.46L79.81 59.28ZM63.73 33.12L64.03 34.42L63.64 34.48C63.56 34.04 63.47 33.6 63.39 33.16H63.73V33.12ZM62.87 54.66C63.28 54.66 63.63 55.66 63.4 56.03C63.17 56.4 63 56.7 62.75 57.1C61.25 56.6111 59.944 55.6587 59.02 54.38C60.42 54.48 61.65 54.55 62.87 54.66V54.66ZM55.35 70.55C55.35 70.32 55.28 70.18 55.26 70.04C55.17 69.04 55.06 67.97 54.99 66.93C54.99 66.75 55.06 66.45 55.21 66.4C57.01 65.81 58.83 65.26 60.64 64.7L60.74 64.82L55.35 70.55V70.55ZM58.22 63.76C56.91 64.15 55.58 64.51 54.22 64.84C53.9592 64.8701 53.6958 64.8139 53.47 64.68C53.17 64.51 52.98 64.21 52.68 64.05C52.3558 63.8993 52.0858 63.6524 51.9069 63.3428C51.728 63.0333 51.6487 62.6762 51.68 62.32C51.74 60.92 51.68 59.52 51.68 57.91L51.99 58.35C52.26 58.74 52.51 59.16 53.25 58.8C53.32 58.8 53.49 58.8 53.6 58.86L54.78 59.26C57.0582 59.9416 59.4067 60.361 61.78 60.51C62.97 60.66 63.55 61.04 63.71 62.03C61.89 62.6 60.07 63.2 58.22 63.76V63.76ZM65.8 61.49L66.01 61.31C66.3 61.4 66.71 61.44 66.87 61.61C67.0263 61.7659 67.2242 61.8735 67.44 61.92C67.06 62.16 66.69 62.42 66.33 62.69L65.8 61.49Z" fill="#141414"/>
<path d="M77.16 79.8599C77.8201 79.8592 78.4651 79.663 79.0138 79.2959C79.5624 78.9289 79.99 78.4075 80.2425 77.7976C80.495 77.1877 80.5611 76.5167 80.4325 75.8693C80.3039 75.2218 79.9864 74.627 79.52 74.1599L74.84 78.8599C75.1463 79.1735 75.5116 79.4233 75.915 79.5949C76.3183 79.7666 76.7516 79.8566 77.19 79.8599" fill="#141414"/>
<path d="M31.46 90.35C28.7859 90.3531 26.171 89.5638 23.9452 88.0817C21.7195 86.5996 19.9828 84.4911 18.9545 82.0227C17.9263 79.5542 17.6525 76.8364 18.1679 74.2125C18.6832 71.5886 19.9645 69.1762 21.85 67.28L18.79 64.23C15.5244 67.5966 13.7142 72.1128 13.7503 76.8029C13.7865 81.493 15.6662 85.9807 18.9834 89.2965C22.3006 92.6124 26.789 94.4903 31.4791 94.5246C36.1693 94.559 40.6847 92.7469 44.05 89.48L40.99 86.42C38.4595 88.9409 35.0319 90.3543 31.46 90.35" fill="#141414"/>
<path d="M54.16 14.54L13.79 54.91L54.16 95.2801L94.53 54.91L54.16 14.54ZM20.09 54.91L54.16 20.86L88.24 54.94L54.16 88.98L20.09 54.91Z" fill="#141414"/>
</g>
<defs>
<clipPath id="clip0_10_443">
<rect width="108.55" height="94.56" fill="white" transform="translate(0 0.719971)"/>
</clipPath>
</defs>
</svg>
