<svg width="202" height="52" viewBox="0 0 202 52" fill="none" xmlns="http://www.w3.org/2000/svg">
<g clip-path="url(#clip0_10_429)">
<path d="M41.831 34.9371C38.3389 33.8862 35.3102 31.671 33.247 28.6586C29.4196 23.2513 19.9961 23.1412 16.0789 28.4784C13.8628 31.6502 10.6453 33.9818 6.94519 35.0973C4.30701 35.9384 2.69813 37.6808 2.63817 40.0039C2.55823 43.4285 3.1678 46.7429 5.84594 49.6068C6.70824 50.5993 7.83193 51.3285 9.08843 51.711C10.3449 52.0935 11.6835 52.1138 12.951 51.7697C15.0535 51.2827 17.0735 50.4899 18.9469 49.4165C23.2639 46.8631 25.942 46.803 30.289 49.4866C31.4926 50.2555 32.7801 50.8837 34.1263 51.3592C38.1236 52.701 41.3114 51.8699 43.7297 49.016C45.5114 46.9666 46.482 44.334 46.4578 41.6161C46.9075 38.4017 45.3486 36.0986 41.821 34.9371" fill="#141414"/>
<path d="M8.65402 28.4083C9.53528 25.9138 9.42797 23.1755 8.35422 20.758C6.96518 17.9842 5.16642 15.3206 5.59612 12.1864C5.40561 12.0748 5.20875 11.9745 5.00653 11.886C4.19264 12.7006 3.49032 13.6198 2.91799 14.6197C1.50833 16.952 0.564786 19.5367 0.139913 22.2299C-0.154276 24.3689 -0.035546 26.5445 0.489661 28.6386C0.750155 29.5611 1.32173 30.3647 2.10704 30.9124C2.89235 31.4601 3.84285 31.7182 4.79669 31.6426C6.97518 31.6426 8.1044 29.9804 8.65402 28.3682" fill="#141414"/>
<path d="M35.0657 24.4329C35.8475 24.5262 36.6391 24.3789 37.3353 24.0104C38.0315 23.6419 38.5992 23.0698 38.963 22.3701C39.478 21.3962 39.8163 20.3384 39.9623 19.2459C40.7318 14.5396 38.0836 10.4341 36.2549 6.2284C35.868 5.55907 35.3266 4.99248 34.676 4.57617L33.8666 4.6663C35.0357 7.87061 33.0471 10.4341 31.6881 13.1577C30.2291 16.0616 30.359 20.2573 31.5382 22.0297C31.887 22.686 32.3874 23.2492 32.9975 23.6725C33.6077 24.0957 34.3099 24.3667 35.0457 24.4629" fill="#141414"/>
<path d="M44.4092 11.7358L43.4099 11.866C44.9389 14.87 43.0602 17.1731 41.7111 19.6565C40.8652 21.1224 40.3813 22.7696 40.2996 24.4609C40.2179 26.1523 40.5408 27.8387 41.2414 29.3796C41.5506 30.089 42.055 30.6956 42.6956 31.1283C43.3362 31.561 44.0866 31.8019 44.8589 31.8228C45.6388 31.8264 46.4054 31.6202 47.0786 31.2257C47.7519 30.8311 48.3071 30.2627 48.6863 29.5798C49.0718 28.8112 49.3477 27.9921 49.5057 27.1465C50.565 22.31 47.9568 18.0543 46.1081 13.6884C45.712 12.8777 45.1086 12.1867 44.3593 11.6857" fill="#141414"/>
<path d="M14.5499 24.4229C15.4325 24.3867 16.2808 24.0704 16.9723 23.5196C17.6638 22.9689 18.1628 22.2122 18.3972 21.3587C19.0253 19.5768 19.1935 17.6646 18.886 15.8C18.5785 13.9354 17.8053 12.1791 16.6384 10.6944C16.1124 10.0519 15.7391 9.29784 15.5469 8.48938C15.3548 7.68093 15.3487 6.83925 15.5292 6.0281C15.6208 5.55655 15.661 5.07642 15.6491 4.59617C15.4693 4.59617 15.1794 4.59617 14.9996 4.49603C14.4372 4.82187 13.9715 5.29192 13.6505 5.85787C11.502 9.63295 9.55335 13.5082 9.65328 17.7839C9.67607 19.0559 9.88481 20.3177 10.2728 21.529C10.5429 22.4298 11.1149 23.2097 11.8923 23.7369C12.6697 24.2642 13.6049 24.5064 14.5399 24.4229" fill="#141414"/>
<path d="M25.2825 19.8367C26.3487 19.5939 27.2963 18.9845 27.9606 18.1144C28.5037 17.4838 28.8875 16.7317 29.0799 15.9214C29.4547 14.1465 29.4471 12.3119 29.0577 10.5402C28.6682 8.76844 27.9058 7.10042 26.8214 5.6476C26.2749 4.58418 25.9583 3.41728 25.8921 2.22299C25.8584 1.57677 25.9189 0.929085 26.072 0.300407L25.3724 0C24.5994 0.529536 23.9763 1.25052 23.5637 2.09282C22.3046 5.09686 20.7856 8.1009 20.206 11.2251C19.7682 13.5324 20.1725 15.9206 21.3452 17.9542C21.7433 18.6219 22.3294 19.1569 23.0299 19.4918C23.7304 19.8268 24.5141 19.9467 25.2825 19.8367Z" fill="#141414"/>
<path d="M71.3006 27.9877C70.4312 26.7861 69.9415 25.985 71.3006 24.6832C71.9099 23.8871 72.2211 22.9019 72.18 21.8995C72.18 19.2059 71.9701 16.5022 71.8902 13.7986C71.8102 11.2451 70.3313 8.5315 67.8929 8.19104C64.2083 7.76696 60.4962 7.63303 56.7907 7.7905C56.1811 7.7905 55.0818 9.0522 55.0618 9.79319C54.9619 14.9001 55.0618 20.0069 55.1618 25.1038C55.3716 32.4637 55.7514 39.8236 55.9612 47.1835C56.0412 50.1075 56.5108 50.7083 59.2789 50.5381C59.7786 50.5381 60.2782 50.4379 60.7579 50.3878C60.7625 50.4345 60.7625 50.4814 60.7579 50.528C62.9564 50.4079 65.1549 50.3578 67.3433 50.1475C70.5811 49.8371 72.5797 48.0447 72.6197 45.2009C72.6996 40.5279 72.6597 35.8549 72.4998 31.182C72.3904 30.0396 71.9647 28.9506 71.2706 28.0378L71.3006 27.9877ZM61.8871 20.027L61.6473 15.0202C61.6473 14.7999 61.4874 14.5296 61.5773 14.3794C62.1969 13.378 62.8664 12.3166 63.526 11.2952C64.2455 12.0663 65.5246 12.7672 65.5845 13.6183C65.8976 16.3569 65.9812 19.1169 65.8344 21.8695C65.8344 22.4102 64.6252 23.2914 63.9757 23.3014C63.5654 23.2149 63.1768 23.0461 62.8333 22.8052C62.4899 22.5642 62.1986 22.2562 61.9771 21.8995C61.6673 21.4789 61.9171 20.6378 61.9171 19.9869L61.8871 20.027ZM67.3333 45.3711C67.3333 45.6515 66.434 45.8918 65.9243 46.062C65.2148 46.2823 64.4853 46.4225 63.3261 46.7029C61.9671 46.2823 62.077 44.7002 62.067 43.1781C62.067 39.7736 61.9071 36.359 61.8871 32.9444C61.8545 32.1552 62.0194 31.3703 62.3668 30.6613C62.5403 30.3365 62.7777 30.0502 63.0644 29.8196C63.3512 29.589 63.6816 29.4189 64.0356 29.3195C64.5153 29.2594 65.3647 29.9503 65.5646 30.4911C66.1031 32.0501 66.5272 33.6465 66.8337 35.2675C67.1757 36.6545 67.3997 38.0682 67.5032 39.4932C67.5716 41.4541 67.5148 43.4174 67.3333 45.3711Z" fill="#141414"/>
<path d="M103.798 7.87057C101.34 7.98072 98.8015 7.70035 96.4132 7.99074C95.274 8.13093 93.2854 7.6603 93.3553 10.2137C93.4185 13.3381 93.3117 16.4636 93.0355 19.5763C92.306 28.1278 91.4766 36.6794 90.6772 45.2309C90.355 45.1233 90.0175 45.0692 89.6779 45.0707C88.119 45.0707 86.56 45.1407 84.9911 45.1808C83.9918 45.1808 83.4422 44.9004 83.4522 43.6688C83.4522 41.4958 83.3723 39.3229 83.1824 37.16C83.0325 35.5378 82.293 34.0258 82.6128 32.2934C82.8126 31.182 82.1231 29.4696 82.6627 28.959C83.3822 28.278 84.9112 28.4983 86.0904 28.3381C86.3002 28.3381 86.5101 28.248 86.7199 28.238C87.8491 28.1679 89.1283 28.3481 88.9284 26.4556C88.7585 24.8334 88.1389 23.9122 86.3801 24.1925C85.6107 24.3127 84.8112 24.1925 84.0418 24.2726C82.9325 24.4028 82.5628 24.0123 82.5028 22.8307C82.3329 19.8267 81.9932 16.7425 81.6834 13.1877H87.8891C89.8078 13.1877 90.0076 11.9561 89.8877 10.3739C89.7878 8.94202 89.6179 7.83052 87.7292 7.95068C84.9711 8.13093 82.1831 8.05082 79.415 8.13093C77.966 8.13093 76.527 8.3312 74.9181 8.45136C75.1979 22.4702 75.4777 36.2488 75.7475 50.0774C80.7441 50.0774 85.3309 50.1575 89.8977 50.0173C90.1875 50.0173 91.8364 50.1074 93.2354 50.0173C94.01 50.1115 94.794 50.0947 95.5638 49.9672C96.1434 49.797 97.1127 49.036 97.0428 48.7556C96.2433 45.4612 97.9621 45.331 100.43 45.4211C103.179 45.5213 103.149 45.321 103.598 48.3551C103.638 48.6899 103.748 49.0125 103.92 49.3023C104.092 49.592 104.323 49.8425 104.598 50.0373C107.735 51.3992 109.924 49.6969 109.594 46.2823C108.595 34.3662 107.612 22.4435 106.646 10.5141C106.496 8.60156 105.707 7.79046 103.808 7.86056L103.798 7.87057ZM97.8822 40.2041C97.5124 32.8342 98.9814 25.8348 99.4511 18.7753H100.251L102.449 39.8036L97.8822 40.2041Z" fill="#141414"/>
<path d="M127.342 27.1866C127.262 26.706 127.492 25.7847 127.761 25.6946C129.76 25.0638 129.53 23.4316 129.56 21.8595C129.62 19.2159 129.76 16.5823 129.79 13.9388C129.79 10.7745 128.141 8.2211 125.123 7.82056C121.48 7.33564 117.801 7.18147 114.131 7.35993C111.133 7.52015 111.063 7.86061 111.133 11.0849C111.183 12.2966 111.293 13.5082 111.343 14.7198C111.823 25.4343 112.272 36.1487 112.802 46.8531C112.972 50.458 113.072 50.508 116.609 50.0274C117.419 49.9172 118.848 49.1562 118.808 48.8458C118.574 47.5546 118.156 46.3036 117.569 45.1308C117.379 44.6902 116.849 44.4098 116.719 44.2796C117.404 43.7512 118.007 43.1235 118.508 42.4171C118.758 41.9265 118.358 41.1454 118.508 40.5346C118.948 38.2415 118.268 35.9684 118.178 33.7254C118.068 30.8315 118.368 28.8789 121.346 27.5972C121.666 29.3696 122.005 30.9817 122.245 32.6039C122.615 35.0472 122.735 37.5506 123.245 39.9538C123.744 42.1267 123.924 44.3297 124.354 46.4926C125.133 50.3678 125.153 50.2977 129.011 50.0975C130.899 50.0074 131.189 49.2163 130.859 47.4639C129.6 40.7249 128.431 33.9557 127.282 27.1866H127.342ZM119.467 25.0237C119.127 25.1639 118.788 25.2741 118.098 25.5344C118.098 23.8421 118.098 22.4302 118.098 21.0183C118.038 18.6451 118.358 16.1418 117.708 13.9488C117.627 13.756 117.587 13.5479 117.591 13.3385C117.595 13.129 117.644 12.9228 117.734 12.7336C117.824 12.5443 117.952 12.3763 118.111 12.2406C118.271 12.1048 118.457 12.0045 118.658 11.9461C120.526 10.9448 123.135 12.637 123.245 14.83C123.305 16.1217 123.384 17.4135 123.474 18.6952C123.754 23.041 123.584 23.3214 119.477 25.0237" fill="#141414"/>
<path d="M150.955 28.949C148.027 25.7647 152.125 24.0724 151.505 21.5089C150.935 19.1658 151.275 16.5923 151.185 14.119C151.075 11.115 149.366 8.5515 146.449 8.11091C143.007 7.74837 139.543 7.64127 136.086 7.79048C134.367 7.79048 133.727 8.79183 133.757 10.6443C133.847 18.1444 133.757 25.6645 133.757 33.1446H134.757C134.757 37.9911 134.817 42.8377 134.757 47.6742C134.757 49.6769 135.676 50.508 137.485 50.4579C140.613 50.3778 143.75 50.3177 146.858 50.0073C150.216 49.6769 151.935 47.6541 151.975 44.2996C151.975 41.8263 152.065 39.2929 151.975 36.8796C151.825 34.156 152.484 30.5111 150.975 28.8689L150.955 28.949ZM140.653 14.3994C141.268 13.4199 141.935 12.474 142.651 11.5656C143.331 12.3566 144.47 13.0976 144.65 13.9688C144.988 16.4603 145.082 18.9791 144.93 21.4889C144.788 21.9154 144.538 22.2972 144.203 22.596C143.868 22.8947 143.46 23.1 143.021 23.1912C142.391 23.1912 141.332 22.1899 141.192 21.4288C140.926 19.5612 140.786 17.6778 140.772 15.7913C140.772 15.3206 140.483 14.7398 140.673 14.3994H140.653ZM143.181 46.3824C142.729 46.26 142.315 46.0251 141.978 45.6995C141.64 45.3738 141.391 44.9681 141.252 44.5199C140.954 40.6423 140.871 36.7511 141.002 32.8642C141.002 31.7027 142.181 30.5812 142.821 29.4496C143.66 30.3308 145.089 31.1119 145.249 32.1032C145.929 36.4991 146.249 40.9451 146.698 45.2008C145.169 45.7716 144.13 46.4926 143.181 46.3824Z" fill="#141414"/>
<path d="M179.825 36.1186C178.256 29.2794 176.228 22.4502 179.695 15.571C180.283 14.3771 180.736 13.1209 181.045 11.8259C181.354 10.5442 182.913 8.90198 180.445 8.08087C177.817 7.2097 174.729 8.21105 174.259 10.0836C173.43 13.378 172.69 16.6825 171.911 19.9869H171.171C171.171 16.9829 171.021 13.9788 171.231 10.9748C171.341 9.47274 171.541 8.03081 169.652 8.24109C167.764 8.45137 164.856 7.07952 164.476 10.4741C164.276 12.3166 164.786 14.2292 164.806 16.1117C164.906 26.2654 164.969 36.4157 164.996 46.5627C164.996 48.4452 165.665 49.4165 167.694 49.1962C169.502 48.996 171.691 49.5968 171.541 46.4826C171.341 42.4772 171.331 38.5519 171.251 34.5866C171.251 32.9544 171.251 31.3122 171.251 29.6699C171.476 29.7413 171.677 29.8719 171.833 30.0482C171.99 30.2244 172.096 30.4397 172.141 30.6713C173.48 36.1787 174.789 41.6861 176.138 47.1835C176.598 49.006 179.246 49.8671 181.524 49.056C183.803 48.2449 182.274 46.8731 182.044 45.7616C181.354 42.5072 180.555 39.2829 179.805 36.0485" fill="#141414"/>
<path d="M199.582 44.2095C197.633 44.2095 195.674 44.2095 193.586 44.2095C193.176 38.7121 192.796 33.5352 192.397 28.2881C193.816 28.1871 195.226 27.9762 196.614 27.6572C197.473 27.3969 198.722 26.6559 198.832 26.015C199.102 24.3828 198.123 23.4616 196.324 23.5918C195.205 23.6719 194.075 23.5918 192.527 23.5918C192.247 20.027 191.987 16.5823 191.697 12.8874C193.956 12.8874 195.914 12.8874 197.883 12.8874C199.582 12.8874 200.121 11.8159 199.931 10.2238C199.742 8.63163 199.662 7.42 197.553 7.55017C193.986 7.77047 190.398 7.8706 186.831 7.8706C185.052 7.8706 184.542 8.56153 184.652 10.2538C184.822 12.7872 184.822 15.3306 184.872 17.8641C185.052 27.457 185.272 37.0399 185.372 46.6328C185.372 48.4753 185.981 49.5667 187.85 49.5367C191.967 49.4766 196.094 49.4165 200.191 49.056C200.861 48.996 201.7 47.4539 201.92 46.4826C202.3 44.7803 201.161 44.1795 199.572 44.2095" fill="#141414"/>
<path d="M160.839 12.1664C160.839 10.1637 160.399 9.0722 158.12 9.41266C156.312 9.67301 154.013 8.71171 154.233 12.1864C154.603 18.0343 154.683 23.9122 154.763 29.7801C154.843 36.1687 154.763 42.5573 154.763 49.1962C156.561 49.2763 157.311 49.3564 158.06 49.3464C161.668 49.2964 161.858 49.066 161.748 45.4912C161.408 34.3863 161.058 23.2813 160.819 12.1664" fill="#141414"/>
</g>
<defs>
<clipPath id="clip0_10_429">
<rect width="202" height="52" fill="white"/>
</clipPath>
</defs>
</svg>
