<svg width="20" height="20" viewBox="0 0 20 20" fill="none" xmlns="http://www.w3.org/2000/svg">
<path d="M14.9811 9.9999C14.9811 12.7509 12.751 14.981 9.99999 14.981C7.24901 14.981 5.01889 12.7509 5.01889 9.9999C5.01889 7.24891 7.24901 5.0188 9.99999 5.0188C12.751 5.0188 14.9811 7.24891 14.9811 9.9999ZM7.08824 9.9999C7.08824 11.608 8.39187 12.9117 9.99999 12.9117C11.6081 12.9117 12.9117 11.608 12.9117 9.9999C12.9117 8.39178 11.6081 7.08815 9.99999 7.08815C8.39187 7.08815 7.08824 8.39178 7.08824 9.9999Z" fill="#141414"/>
<circle cx="14.9811" cy="5.01896" r="1.21818" fill="#141414"/>
<path fill-rule="evenodd" clip-rule="evenodd" d="M5.37274 0.375488C2.61132 0.375488 0.372742 2.61407 0.372742 5.37549V14.6243C0.372742 17.3857 2.61132 19.6243 5.37274 19.6243H14.6273C17.3887 19.6243 19.6273 17.3857 19.6273 14.6243V5.37549C19.6273 2.61406 17.3887 0.375488 14.6273 0.375488H5.37274ZM5.48999 2.49211C3.83314 2.49211 2.48999 3.83526 2.48999 5.49211V14.5077C2.48999 16.1645 3.83314 17.5077 5.48999 17.5077H14.51C16.1668 17.5077 17.51 16.1645 17.51 14.5077V5.49211C17.51 3.83526 16.1668 2.49211 14.51 2.49211H5.48999Z" fill="#141414"/>
</svg>
