<svg width="20" height="20" viewBox="0 0 20 20" fill="none" xmlns="http://www.w3.org/2000/svg">
<path fill-rule="evenodd" clip-rule="evenodd" d="M9.78521 15.3676H10.9807C10.9807 15.3676 11.3418 15.3279 11.5262 15.1291C11.6959 14.9465 11.6904 14.6037 11.6904 14.6037C11.6904 14.6037 11.6671 12.9988 12.4116 12.7625C13.1455 12.5297 14.0879 14.3136 15.0868 14.9995C15.8421 15.5186 16.4161 15.4048 16.4161 15.4048L19.087 15.3676C19.087 15.3676 20.4842 15.2815 19.8217 14.1824C19.7674 14.0925 19.4359 13.3693 17.8359 11.8834C16.1612 10.3282 16.3854 10.5798 18.4028 7.88963C19.6314 6.25131 20.1226 5.2511 19.9692 4.8227C19.8228 4.41469 18.9192 4.52253 18.9192 4.52253L15.9119 4.54128C15.9119 4.54128 15.689 4.51085 15.5237 4.60973C15.3621 4.70671 15.2581 4.93272 15.2581 4.93272C15.2581 4.93272 14.7822 6.20051 14.1474 7.27869C12.8082 9.55375 12.2728 9.67382 12.054 9.53256C11.5449 9.20333 11.672 8.2099 11.672 7.50416C11.672 5.29945 12.0062 4.38019 11.0211 4.14222C10.6942 4.06317 10.4537 4.01102 9.61769 4.00259C8.54467 3.99146 7.63645 4.00585 7.12221 4.25794C6.7801 4.42555 6.51619 4.79907 6.67692 4.82053C6.87567 4.84715 7.32584 4.94196 7.5645 5.26712C7.87267 5.68655 7.86181 6.62863 7.86181 6.62863C7.86181 6.62863 8.03884 9.22397 7.44829 9.54642C7.04292 9.76754 6.48686 9.31606 5.29302 7.25207C4.6813 6.19481 4.21945 5.02617 4.21945 5.02617C4.21945 5.02617 4.1304 4.80776 3.97156 4.69095C3.77879 4.54942 3.50944 4.50433 3.50944 4.50433L0.65176 4.52307C0.65176 4.52307 0.222768 4.53503 0.0652904 4.72165C-0.0748108 4.88763 0.0541582 5.23099 0.0541582 5.23099C0.0541582 5.23099 2.29143 10.4679 4.82466 13.1069C7.14746 15.5265 9.78521 15.3676 9.78521 15.3676Z" fill="#141414"/>
</svg>
